<?xml version="1.0" encoding="utf-8"?>
<!-- Generator: Adobe Illustrator 16.0.0, SVG Export Plug-In . SVG Version: 6.00 Build 0)  -->
<!DOCTYPE svg PUBLIC "-//W3C//DTD SVG 1.1//EN" "http://www.w3.org/Graphics/SVG/1.1/DTD/svg11.dtd">
<svg version="1.1" xmlns="http://www.w3.org/2000/svg" xmlns:xlink="http://www.w3.org/1999/xlink" x="0px" y="0px" width="239.5px"
	 height="64.083px" viewBox="0 0 239.5 64.083" enable-background="new 0 0 239.5 64.083" xml:space="preserve">
<g id="Layer_1" display="none">
	
		<image display="inline" overflow="visible" width="1776" height="999" xlink:href="ADS.png"  transform="matrix(0.152 0 0 0.152 -12.5 -40.5415)">
	</image>
</g>
<g id="Layer_1_copy">
	<g>
		<path display="none" fill-rule="evenodd" clip-rule="evenodd" fill="#FFFFFF" d="M-12.348-40.39c90,0,180,0,270,0
			c0,50.625,0,101.25,0,151.875c-90,0-180,0-270,0C-12.348,60.861-12.348,10.235-12.348-40.39z M67.521,37.311
			c-1.468,2.481-2.4,5.13-2.44,8.04c-0.003,0.266,0.17,0.584,0.356,0.792c0.816,0.913,1.585,0.77,2.524-0.305
			c1.129-1.292,2.043-2.776,3.012-4.204c0.536-0.791,0.991-1.636,1.492-2.473c0.543,0.982,1.008,1.869,1.516,2.729
			c1.039,1.759,2.636,2.376,4.406,1.922c1.776-0.456,3.142-1.551,4.476-2.674c1.541-1.296,2.796-2.864,3.99-4.499
			c2.769-3.791,4.137-8.092,4.746-12.66c0.305-2.285,0.344-4.604,0.507-6.964c2.773-1.291,7.005-4.75,7.405-6.189
			c-2.313,2.221-4.429,4.533-7.52,5.665c-0.061-0.57-0.14-1.04-0.155-1.512c-0.069-2.122-0.563-4.133-1.672-5.948
			c-0.761-1.246-2.022-1.455-3.231-0.687c-0.801,0.509-1.19,1.253-1.399,2.143c-0.103,0.436-0.178,0.932-0.437,1.27
			c-1.771,2.313-3.027,4.905-4.151,7.563c-1.095,2.588-2.061,5.23-3.168,7.813c-0.89,2.076-1.885,4.108-2.874,6.141
			c-0.711,1.461-1.49,2.891-2.337,4.524c-0.207-0.475-0.358-0.752-0.45-1.047c-0.243-0.776-0.515-1.563-1.208-2.023
			c-0.347-0.23-0.977-0.417-1.282-0.254c-0.946,0.506-1.593,1.343-1.875,2.415C67.675,37.029,67.598,37.17,67.521,37.311z
			 M178.014,31.234c0.497-0.865,0.976-1.742,1.495-2.594c0.646-1.06,1.18-2.205,2.407-2.791c0.793-0.378,1.173-0.388,1.609,0.359
			c0.766,1.311,0.465,2.747,0.386,4.163c-0.209-0.248-0.321-0.514-0.407-0.789c-0.301-0.963-0.632-1.888-1.431-2.598
			c-0.352-0.312-0.615-0.328-0.89-0.049c-0.417,0.425-0.879,0.85-1.152,1.365c-1.158,2.176-1.915,4.505-2.214,6.947
			c-0.203,1.659-0.225,3.342-0.286,5.016c-0.026,0.715,0.477,1.213,1.017,1.522c0.584,0.335,0.991-0.163,1.397-0.563
			c1.456-1.434,2.552-3.123,3.573-4.872c0.148-0.254,0.364-0.469,0.548-0.702c0.111,0.258,0.065,0.426,0.06,0.595
			c-0.04,1.051-0.687,2.084-0.104,3.153c0.199,0.366,0.415,0.724,0.623,1.086c0.396-0.271,0.911-0.461,1.161-0.83
			c0.526-0.775,0.917-1.643,1.354-2.477c0.227-0.432,0.433-0.875,0.669-1.357c0.174,0.871,0.264,1.636,0.485,2.36
			c0.263,0.86,1.25,1.255,1.836,0.771c1.502-1.241,2.837-2.654,3.661-4.433c1.099-2.371,2.08-4.796,3.12-7.195
			c0.083-0.19,0.231-0.351,0.35-0.525c0.09,0.039,0.179,0.079,0.269,0.118c-0.415,1.644-0.793,3.298-1.254,4.929
			c-0.445,1.575-0.989,3.123-1.467,4.689c-0.413,1.354-0.807,2.713-1.187,4.077c-0.476,1.706-0.966,3.41-1.379,5.133
			c-0.456,1.904-0.845,3.826-1.24,5.746c-0.452,2.196-0.852,4.404-1.327,6.597c-0.301,1.381-0.715,2.737-1.047,4.112
			c-0.107,0.443-0.114,0.91-0.167,1.366c0.093,0.025,0.185,0.05,0.277,0.075c0.134-0.217,0.309-0.418,0.395-0.651
			c0.246-0.666,0.399-1.37,0.691-2.014c1.043-2.301,2.158-4.569,3.187-6.876c0.784-1.762,1.451-3.576,2.218-5.346
			c1.012-2.335,2.056-4.657,3.112-6.973c1.447-3.17,2.883-6.346,4.397-9.483c0.583-1.208,1.508-2.193,2.777-3.135
			c-0.298,0.973-0.543,1.747-0.771,2.525c-0.609,2.083-0.966,4.21-0.775,6.379c0.045,0.518,0.489,0.999,0.75,1.497
			c0.388-0.209,0.869-0.335,1.143-0.645c0.509-0.575,0.928-1.238,1.326-1.899c0.542-0.901,1.106-1.802,1.521-2.764
			c0.403-0.939,1.475-1.491,1.466-2.669c-0.002-0.228,0.351-0.459,0.54-0.689c0.169,0.255,0.418,0.489,0.492,0.769
			c0.39,1.474,0.694,2.972,1.11,4.438c0.316,1.117,1.565,1.819,2.623,1.352c1.363-0.601,2.681-1.347,3.919-2.179
			c0.974-0.654,1.784-1.55,2.692-2.308c0.918-0.767,1.72-0.515,2.147,0.614c0.168,0.443,0.391,0.866,0.61,1.287
			c1.309,2.51,3.568,3.406,6.192,3.317c1.901-0.064,3.802-0.454,5.68-0.813c0.896-0.171,1.741-0.608,2.609-0.926
			c-1.037,0.058-2.016,0.243-2.971,0.515c-2.282,0.648-4.625,0.671-6.945,0.518c-0.938-0.063-1.997-0.524-2.717-1.138
			c-0.975-0.832-1.649-1.972-2.202-3.195c-0.6-1.327-1.307-1.473-2.447-0.68c-0.837,0.582-1.537,1.354-2.348,1.979
			c-1.383,1.066-2.725,2.206-4.512,2.597c-0.687,0.149-1.331-0.041-1.562-0.569c-0.522-1.197-0.858-2.475-1.255-3.725
			c-0.215-0.677-0.367-1.375-0.614-2.039c-0.062-0.167-0.419-0.378-0.565-0.333c-0.592,0.187-0.589-0.177-0.606-0.555
			c-0.037-0.761-0.38-1.375-1.012-1.764c-0.529-0.326-1.253-0.234-1.729-0.759c-0.066-0.073-0.477,0.06-0.642,0.199
			c-0.654,0.554-1.262,1.165-1.912,1.725c-1.303,1.123-2.27,2.504-3.014,4.03c-0.794,1.627-1.503,3.297-2.24,4.951
			c-0.848,1.901-1.698,3.802-2.526,5.711c-0.781,1.799-1.527,3.613-2.303,5.415c-0.769,1.784-1.545,3.563-2.336,5.337
			c-0.706,1.585-1.438,3.159-2.159,4.737c-0.167-0.141-0.2-0.234-0.186-0.319c0.28-1.582,0.544-3.168,0.856-4.744
			c0.403-2.034,0.756-4.085,1.291-6.085c1.177-4.406,2.463-8.782,3.688-13.176c0.688-2.464,1.374-4.929,1.981-7.412
			c0.121-0.495,0.351-1.232-0.528-1.563c-0.235,0.281-0.559,0.528-0.693,0.853c-0.516,1.242-0.953,2.516-1.453,3.765
			c-0.43,1.074-0.833,2.168-1.381,3.182c-0.476,0.88-1.242,1.608-1.688,2.5c-0.494,0.986-1.342,1.501-2.185,2.044
			c-0.591,0.382-1.056,0.22-1.148-0.481c-0.152-1.156-0.257-2.35-0.142-3.503c0.146-1.445,0.554-2.863,0.803-4.3
			c0.056-0.324-0.081-0.681-0.129-1.023c-0.064,0.004-0.129,0.008-0.193,0.013c-0.453,1.926-0.816,3.879-1.384,5.771
			c-0.574,1.915-1.413,3.73-2.999,5.245c-0.144-0.278-0.304-0.444-0.303-0.609c0.006-1.039-0.062-2.095,0.103-3.112
			c0.271-1.677,0.779-3.306,1.822-4.69c0.783-1.039,1.616-2.042,2.472-3.023c0.393-0.449,0.889-0.744,1.472-0.19
			c0.065,0.063,0.293-0.044,0.445-0.072c0.013-0.074,0.026-0.148,0.039-0.222c-0.432-0.274-0.852-0.568-1.296-0.818
			c-0.925-0.52-1.797-0.28-2.293,0.652c-0.408,0.767-0.791,1.551-1.135,2.349c-0.443,1.029-0.728,2.142-1.274,3.109
			c-0.94,1.663-2.008,3.257-3.066,4.851c-0.706,1.062-1.385,2.158-2.557,2.814c-0.328,0.185-0.549,0.249-0.719-0.139
			c-0.118-0.268-0.303-0.54-0.313-0.816c-0.045-1.148-0.14-2.311-0.017-3.445c0.142-1.296,0.586-2.559,0.732-3.855
			c0.182-1.604,0.86-3.003,1.575-4.389c0.26-0.504,0.792-0.868,1.2-1.295c0.381,0.447,0.768,0.889,1.137,1.345
			c0.071,0.087,0.063,0.233,0.108,0.347c0.312,0.792,0.628,1.582,0.942,2.373c0.086,0.005,0.171,0.01,0.257,0.016
			c0.119-0.269,0.333-0.535,0.342-0.808c0.033-1.13,0.078-2.269-0.02-3.392c-0.14-1.592-1.2-2.152-2.595-1.432
			c-0.416,0.215-0.858,0.473-1.149,0.826c-1.147,1.394-2.046,2.943-2.644,4.655c-0.147,0.128-0.346,0.229-0.434,0.389
			c-0.531,0.971-1.049,1.95-1.549,2.938c-1.036,2.048-2.063,4.1-3.074,6.158c-0.085,0.173-0.025,0.417-0.032,0.627
			c-0.154,0.104-0.373,0.174-0.451,0.319c-0.282,0.528-0.514,1.084-0.771,1.626c-0.653,1.38-1.303,2.763-1.967,4.138
			c-0.354,0.734-0.734,1.455-1.103,2.183c0.385-2.023,0.865-3.987,1.375-5.944c0.328-1.258,0.725-2.499,1.042-3.76
			c0.321-1.277,0.563-2.575,0.876-3.855c0.511-2.099,1.094-4.181,1.562-6.289c0.273-1.231,0.391-2.499,0.554-3.752
			c0.03-0.231-0.054-0.478-0.085-0.716c-0.078,0.009-0.156,0.019-0.234,0.029c-0.201,0.923-0.402,1.847-0.64,2.934
			c-0.306-0.495-0.55-0.861-0.766-1.244c-0.348-0.62-1.379-1.247-1.929-1.018c-0.487,0.203-0.98,0.538-1.309,0.945
			c-0.43,0.535-0.65,1.234-1.05,1.801c-0.931,1.32-1.382,2.828-1.709,4.364c-0.501,2.351-1.256,4.596-2.426,6.695
			c-0.304,0.547-0.7,1.03-1.598,0.746c-0.157-1.012-0.523-2.103-0.444-3.16c0.116-1.561,0.455-3.125,0.878-4.637
			c0.384-1.375,0.68-2.738,0.302-4.116c-0.167-0.609-0.574-1.288-1.078-1.639c-0.806-0.56-1.618,0.021-2.126,0.943
			c-0.692,1.258-1.406,2.549-1.802,3.916c-0.584,2.017-0.892,4.114-1.323,6.175c-0.173,0.826-0.362,1.649-0.584,2.657
			c-0.16-0.274-0.235-0.343-0.226-0.396c0.315-1.729,0.53-3.488,0.987-5.181c0.7-2.59,0.997-5.188,0.596-7.839
			c-0.105-0.696-0.397-1.377-1.175-1.811c-0.205,0.402-0.438,0.76-0.578,1.152c-0.439,1.233-0.821,2.488-1.267,3.72
			c-0.665,1.841-1.313,3.692-2.077,5.493c-0.274,0.648-0.845,1.179-1.316,1.732c-0.337,0.396-0.835,0.453-1.078-0.009
			c-0.412-0.781-0.823-1.614-0.971-2.47c-0.152-0.883-0.014-1.821,0.044-2.732c0.087-1.393,0.229-2.784,0.316-4.177
			c0.04-0.627,0.007-1.259,0.007-1.89c-0.113-0.002-0.227-0.004-0.339-0.006c-0.04,0.648-0.079,1.296-0.118,1.944
			c-0.069-0.003-0.139-0.007-0.208-0.01c-0.022-0.132-0.048-0.264-0.065-0.397c-0.085-0.638-0.103-1.293-0.271-1.908
			c-0.185-0.676-0.666-0.776-1.069-0.246c-0.401,0.528-0.829,1.085-1.041,1.701c-0.702,2.039-1.391,4.088-1.932,6.173
			c-0.419,1.611-0.63,3.277-0.433,4.964c0.031,0.26,0.03,0.629-0.123,0.786c-1.213,1.242-2.417,2.515-4.246,2.853
			c-1.029,0.19-1.969-0.215-2.422-1.124c2.029-0.385,3.018-1.891,3.692-3.609c0.737-1.878,1.353-3.806,1.962-5.73
			c0.382-1.207,0.716-2.435,0.965-3.675c0.479-2.379,0.856-4.779,1.32-7.162c0.371-1.908,0.83-3.799,1.208-5.706
			c0.487-2.459,0.955-4.923,1.375-7.394c0.084-0.498,0.271-1.115-0.415-1.589c-1.395,10.239-5.071,19.464-11.862,27.409
			c-0.095-0.761-0.188-1.515-0.282-2.269c-0.131-1.04-0.529-1.556-1.432-1.592c-0.163,1.822-0.382,3.653-0.466,5.491
			c-0.042,0.905-0.03,1.732-0.749,2.434c-0.663,0.647-1.186,1.44-1.846,2.092c-1.193,1.177-2.408,2.339-3.685,3.425
			c-0.736,0.627-1.414,0.358-1.722-0.535c-0.045-0.131-0.086-0.264-0.129-0.395c-0.075,0.264-0.021,0.477,0.01,0.693
			c0.14,0.947,0.59,1.242,1.455,0.811c0.727-0.363,1.477-0.774,2.05-1.335c1.414-1.384,2.739-2.86,4.084-4.313
			c0.218-0.235,0.357-0.544,0.539-0.828c0.239,0.26,0.287,0.29,0.303,0.333c0.053,0.141,0.098,0.285,0.138,0.43
			c0.357,1.303,1.048,2.314,2.355,2.846c0.275,0.112,0.506,0.383,0.707,0.622c0.572,0.681,1.284,1.279,2.152,1.224
			c1.511-0.095,2.838-0.77,3.949-1.825c0.41-0.39,0.839-0.759,1.277-1.154c0.766,1.822,1.729,1.899,2.79,0.372
			c0.485-0.699,0.775-1.547,1.076-2.355c0.251-0.674,0.389-1.39,0.626-2.269c0.256,0.728,0.349,1.305,0.646,1.745
			c0.308,0.456,0.762,0.958,1.249,1.097c0.343,0.098,1.013-0.27,1.251-0.622c0.632-0.937,1.222-1.936,1.624-2.988
			c0.784-2.051,1.424-4.156,2.135-6.235c0.267-0.782,0.567-1.552,0.912-2.493c0.213,0.348,0.352,0.502,0.409,0.682
			c0.599,1.841,0.582,3.746,0.312,5.612c-0.223,1.538-0.818,3.018-1.126,4.548c-0.252,1.254-0.354,2.541-0.457,3.818
			c-0.037,0.453,0.063,0.953,0.658,1.127c0.213-0.733,0.459-1.417,0.606-2.122c0.494-2.372,0.886-4.768,1.449-7.123
			c0.43-1.799,1.059-3.548,2.417-4.917c0.626-0.631,1.216-0.562,1.677,0.305c0.556,1.044,0.638,2.198,0.363,3.366
			c-0.38,1.619-0.721,3.248-1.13,4.86c-0.374,1.472-0.066,2.876,0.36,4.261c0.109,0.356,0.5,0.884,0.756,0.88
			c0.389-0.005,0.891-0.32,1.133-0.656c0.461-0.641,0.776-1.388,1.145-2.095c0.23-0.441,0.447-0.891,0.67-1.337
			c0.215,0.527,0.179,1.039,0.342,1.478c0.271,0.733,0.569,1.5,1.045,2.102c0.484,0.612,1.504,0.347,2.232-0.451
			c0.447-0.488,0.875-0.995,1.312-1.494c0.15,0.189,0.17,0.289,0.147,0.378c-0.509,2.015-0.988,4.037-1.542,6.038
			c-0.727,2.628-1.472,5.252-2.286,7.853c-0.608,1.944-1.349,3.846-2.008,5.773c-0.271,0.79-0.51,1.594-0.704,2.405
			c-0.054,0.221,0.104,0.493,0.164,0.742c1.452-3.533,2.659-7.025,3.983-10.473c0.742-1.93,1.675-3.787,2.529-5.675
			c0.683-1.507,1.377-3.009,2.063-4.517c0.144-0.205,0.313-0.397,0.428-0.618c1.366-2.616,2.732-5.233,4.08-7.859
			C177.623,32.304,177.8,31.759,178.014,31.234z M42.257,39.879c-0.033-0.013-0.066-0.026-0.099-0.039
			c0.457-2.189,0.989-4.368,1.341-6.575c0.188-1.17,0.136-2.395,0.054-3.585c-0.049-0.716-0.913-1.004-1.415-0.519
			c-0.482,0.466-0.966,0.977-1.284,1.559c-1.548,2.832-2.997,5.718-4.57,8.536c-0.817,1.463-1.731,2.884-3.13,3.914
			c-0.482,0.354-0.708,0.199-0.955-0.218c-0.679-1.147-0.772-2.412-0.557-3.664c0.36-2.091,0.852-4.159,1.259-6.241
			c0.116-0.593,0.244-1.221,0.159-1.803c-0.068-0.466-0.352-1.015-0.718-1.295c-0.466-0.357-0.859,0.151-1.101,0.51
			c-0.726,1.077-1.503,2.14-2.064,3.303c-0.965,2.002-1.778,4.078-2.666,6.117c-0.264,0.606-0.568,1.194-0.854,1.79
			c-0.137-0.271-0.181-0.52-0.129-0.744c0.201-0.869,0.433-1.73,0.651-2.596c0.649-2.575,1.31-5.146,1.936-7.727
			c0.153-0.631-0.086-1.175-0.664-1.514c-0.559-0.327-0.899,0.086-1.214,0.433c-1.492,1.647-2.932,3.343-4.464,4.951
			c-0.882,0.925-1.905,1.714-2.864,2.564c-0.086-0.052-0.172-0.104-0.259-0.157c0.052-0.479,0.101-0.958,0.157-1.436
			c0.203-1.722,0.395-3.446,0.615-5.166c0.338-2.648,0.742-5.289,1.033-7.941c0.302-2.751,0.468-5.517,0.759-8.27
			c0.297-2.813,0.663-5.619,1.019-8.426c0.144-1.133,0.355-2.259,0.501-3.392c0.027-0.214-0.11-0.45-0.172-0.676
			c-0.09,0-0.181,0-0.271,0c-0.088,0.265-0.204,0.524-0.258,0.795c-0.064,0.318-0.063,0.649-0.112,0.971
			c-0.214,1.412-0.437,2.821-0.653,4.232c-0.317,2.068-0.536,4.156-0.973,6.199c-0.454,2.123-1.103,4.205-1.691,6.298
			c-0.412,1.465-0.761,2.96-1.324,4.368c-1.19,2.976-2.466,5.919-3.78,8.843c-0.675,1.502-1.502,2.936-2.27,4.395
			c-0.31,0.591-0.661,1.118-1.431,0.548c-0.044-0.032-0.161,0.032-0.271,0.058c0.741,0.882,0.738,0.882-0.026,1.934
			c-0.293,0.402-0.567,0.819-0.862,1.222c-0.658,0.899-1.231,1.883-2.002,2.673c-1.677,1.718-3.274,3.549-5.51,4.622
			c0.241,0.628,0.627,0.53,0.965,0.249c0.927-0.772,1.865-1.54,2.724-2.386c1.234-1.215,2.471-2.44,3.575-3.771
			c0.916-1.104,1.641-2.363,2.464-3.573c2.406,0.801,4.633,0.277,6.836-0.862c0.011,0.24,0.029,0.338,0.018,0.431
			c-0.236,1.942-0.476,3.884-0.713,5.825c-0.194,1.599-0.417,3.193-0.569,4.795c-0.114,1.204-0.153,2.416-0.179,3.626
			c-0.004,0.204,0.195,0.448,0.364,0.604c0.075,0.069,0.407,0.019,0.457-0.07c0.331-0.593,0.617-1.21,0.917-1.819
			c-0.036-0.013-0.072-0.025-0.108-0.038c-0.243,0.279-0.486,0.558-0.729,0.836c-0.072-0.03-0.144-0.062-0.216-0.093
			c0.066-1.075,0.088-2.156,0.208-3.226c0.394-3.526,0.822-7.05,1.242-10.574c0.057-0.481,0.25-0.821,0.703-1.13
			c0.87-0.591,1.715-1.258,2.434-2.022c1.408-1.499,2.713-3.093,4.08-4.632c0.482-0.543,1.019-1.038,1.531-1.554
			c0.102,0.048,0.203,0.096,0.305,0.144c0.148,0.846,0.185,1.685-0.058,2.56c-0.882,3.18-1.757,6.364-2.582,9.559
			c-0.181,0.699-0.145,1.455-0.208,2.185c0.083,0.036,0.167,0.073,0.25,0.11c0.171-0.174,0.402-0.318,0.504-0.526
			c0.49-1.005,0.954-2.023,1.413-3.042c0.738-1.639,1.412-3.31,2.215-4.915c0.759-1.517,1.633-2.978,2.497-4.439
			c0.135-0.229,0.481-0.335,0.73-0.498c0.108,0.287,0.341,0.591,0.304,0.858c-0.228,1.669-0.411,3.355-0.811,4.986
			c-0.521,2.13-0.983,4.213-0.248,6.39c0.374,1.106,1.256,1.48,2.191,0.784c0.342-0.254,0.643-0.571,0.929-0.891
			c2.127-2.366,3.396-5.24,4.794-8.046c0.758-1.52,1.692-2.954,2.594-4.397c0.172-0.276,0.563-0.416,0.854-0.619
			c0.166,0.367,0.481,0.74,0.468,1.102c-0.042,1.203-0.088,2.427-0.343,3.597c-0.524,2.412-1.19,4.794-1.775,7.193
			c-0.046,0.188,0.088,0.421,0.139,0.633c0.185-0.135,0.445-0.229,0.543-0.411c0.861-1.59,1.677-3.205,2.539-4.796
			c1.289-2.379,2.599-4.748,3.914-7.113c0.15-0.271,0.388-0.493,0.585-0.738c0.096,0.014,0.191,0.027,0.287,0.041
			c0.065,0.488,0.248,0.994,0.176,1.46c-0.439,2.849-1.001,5.679-1.387,8.534c-0.204,1.509-0.313,3.056,0.336,4.544
			c0.518,1.187,1.992,1.823,2.935,0.961c0.492-0.449,1.053-0.824,1.548-1.207c0.35,0.657,0.691,1.29,1.025,1.928
			c0.566,1.084,1.858,1.25,2.741,0.742c1.405-0.807,2.652-1.841,3.373-3.379c-0.305,0.199-0.561,0.453-0.825,0.698
			c-0.618,0.572-1.186,1.217-1.872,1.691c-1.055,0.729-2.153,1.067-2.872,0.057c-0.315-0.443-0.644-0.902-0.834-1.404
			c-0.125-0.331-0.169-0.864,0.013-1.115c1.095-1.501,2.072-3.061,2.728-4.805c0.817-2.173,1.47-4.388,1.452-6.737
			c-0.002-0.283-0.188-0.664-0.413-0.812c-0.151-0.1-0.591,0.055-0.78,0.229c-1.603,1.469-2.926,3.163-3.608,5.246
			c-0.453,1.381-0.726,2.82-0.501,4.307c0.111,0.742,0.143,1.497,0.186,2.248c0.013,0.217,0.017,0.529-0.112,0.645
			c-0.537,0.479-1.072,1.01-1.708,1.313c-0.992,0.472-1.578,0.16-2.011-0.862c-0.709-1.677-0.338-3.404-0.128-5.09
			c0.25-2.013,0.725-3.997,1.047-6.002c0.126-0.79,0.152-1.606,0.123-2.407c-0.014-0.368-0.173-0.836-0.435-1.067
			c-0.622-0.548-1.017,0.111-1.241,0.495c-1.435,2.454-2.816,4.939-4.194,7.426C43.342,37.74,42.811,38.816,42.257,39.879z
			 M113.102,30.889c0.049,0.004,0.099,0.009,0.148,0.014c-0.28,0.851-0.541,1.708-0.844,2.55c-0.416,1.155-0.931,2.279-1.278,3.453
			c-0.304,1.028-0.567,2.106-0.589,3.167c-0.011,0.551,0.423,1.424,0.867,1.592c0.545,0.206,1.439,0.016,1.958-0.335
			c1.551-1.047,2.375-2.671,3.025-4.387c0.35-0.924,0.758-1.826,1.14-2.739c0.108,0.153,0.139,0.282,0.104,0.39
			c-0.532,1.611-0.734,3.278-0.729,4.959c0.002,0.71,0.206,1.429,0.395,2.122c0.042,0.153,0.517,0.367,0.613,0.299
			c0.901-0.636,1.611-1.431,1.887-2.657c-0.654,0.862-1.235,1.628-1.816,2.394c-0.092-0.019-0.184-0.038-0.276-0.057
			c-0.09-0.285-0.263-0.572-0.257-0.855c0.026-1.272,0.037-2.551,0.175-3.813c0.266-2.425,0.905-4.759,1.899-6.994
			c0.155-0.35,0.167-0.763,0.244-1.147c-0.074-0.025-0.148-0.05-0.222-0.075c-0.14,0.188-0.315,0.36-0.415,0.567
			c-0.417,0.876-0.823,1.759-1.213,2.647c-1.065,2.421-2.11,4.851-3.185,7.268c-0.532,1.195-1.377,1.981-2.772,2.099
			c-0.555,0.047-0.875-0.142-0.887-0.624c-0.021-0.841-0.073-1.728,0.152-2.521c0.518-1.822,1.213-3.594,1.797-5.399
			c0.238-0.734,0.392-1.498,0.545-2.255c0.03-0.149-0.12-0.334-0.186-0.503c-0.135,0.079-0.304,0.129-0.397,0.243
			c-0.331,0.403-0.68,0.801-0.942,1.248c-1.528,2.602-3.339,4.996-5.295,7.286c-0.226,0.265-0.479,0.507-0.718,0.76
			c-0.087-0.332-0.077-0.585-0.008-0.82c0.608-2.07,1.242-4.133,1.831-6.208c0.142-0.499,0.226-1.042,0.183-1.553
			c-0.028-0.334-0.329-0.646-0.508-0.969c-0.268,0.188-0.637,0.316-0.788,0.572c-1.011,1.725-2.008,3.459-2.944,5.226
			c-0.766,1.447-1.441,2.941-2.157,4.415c-0.127-0.142-0.149-0.262-0.124-0.371c0.548-2.312,1.11-4.62,1.649-6.933
			c0.197-0.846,0.365-1.7,0.489-2.559c0.027-0.189-0.19-0.413-0.295-0.621c-0.196,0.121-0.468,0.196-0.574,0.371
			c-0.452,0.748-0.866,1.519-1.273,2.293c-1.138,2.162-2.047,4.458-3.724,6.304c-0.301,0.331-1.992,1.598-2.273,1.946
			c0.338,0.017,2.072-0.946,2.206-1.131c0.786-1.093,1.61-2.171,2.27-3.339c0.882-1.563,1.619-3.207,2.437-4.806
			c0.186-0.363,0.451-0.685,0.68-1.025c0.085,0.029,0.171,0.057,0.256,0.085c-0.095,0.562-0.126,1.144-0.294,1.683
			c-0.941,3.024-1.966,6.025-2.248,9.209c-0.015,0.175,0.087,0.359,0.134,0.54c0.139-0.121,0.332-0.215,0.409-0.368
			c0.379-0.752,0.702-1.534,1.09-2.281c1.27-2.439,2.533-4.884,3.863-7.29c0.305-0.552,0.512-1.304,1.479-1.518
			c-0.17,0.9-0.26,1.698-0.478,2.458c-0.404,1.409-0.917,2.786-1.321,4.194c-0.283,0.985-0.474,1.999-0.671,3.006
			c-0.03,0.155,0.125,0.346,0.195,0.521c0.125-0.063,0.289-0.094,0.371-0.192c0.883-1.055,1.797-2.087,2.618-3.188
			C110.07,35.141,111.574,33.006,113.102,30.889z M85.877,42.157c0.237,1.218,1.161,1.332,2.017,1.012
			c1.008-0.378,1.953-0.96,2.864-1.548c0.812-0.525,1.54-1.18,2.344-1.808c0.379,0.657,0.392,1.623,1.469,1.568
			c1.019-0.052,2.682-1.109,3.195-1.907c-0.404,0.135-2.187,1.128-2.585,1.322c-0.606,0.295-1.024,0.231-1.345-0.416
			c-0.298-0.602-0.394-1.116,0.132-1.662c1.443-1.498,2.547-3.229,3.446-5.101c0.727-1.513,1.208-3.084,1.181-4.774
			c-0.004-0.258-0.159-0.64-0.354-0.732c-0.201-0.095-0.645,0.001-0.795,0.175c-0.698,0.809-1.421,1.621-1.97,2.531
			c-1.329,2.203-2.128,4.629-2.374,7.177c-0.094,0.975-0.516,1.603-1.175,2.105c-1.128,0.861-2.323,1.638-3.515,2.412
			C87.296,43.238,86.841,43.165,85.877,42.157z M121.539,19.238c-0.484,1.486-0.403,1.973,0.325,2.093
			C121.762,20.669,121.66,20.019,121.539,19.238z M101.521,8.985c-0.057-0.05-0.113-0.101-0.169-0.151
			c-0.566,0.627-1.132,1.254-1.699,1.882c0.058,0.051,0.115,0.103,0.173,0.154C100.391,10.242,100.956,9.614,101.521,8.985z"/>
		<path fill-rule="evenodd" clip-rule="evenodd" d="M42.257,39.879c0.554-1.063,1.084-2.14,1.666-3.188
			c1.378-2.487,2.76-4.972,4.194-7.426c0.224-0.383,0.619-1.043,1.241-0.495c0.262,0.231,0.421,0.7,0.435,1.067
			c0.029,0.801,0.003,1.617-0.123,2.407c-0.322,2.005-0.797,3.989-1.047,6.002c-0.209,1.686-0.581,3.413,0.128,5.09
			c0.433,1.022,1.019,1.334,2.011,0.862c0.636-0.303,1.171-0.834,1.708-1.313c0.129-0.115,0.125-0.428,0.112-0.645
			c-0.042-0.751-0.074-1.506-0.186-2.248c-0.224-1.487,0.048-2.926,0.501-4.307c0.683-2.083,2.006-3.776,3.608-5.246
			c0.189-0.173,0.629-0.328,0.78-0.229c0.225,0.148,0.411,0.529,0.413,0.812c0.018,2.349-0.635,4.564-1.452,6.737
			c-0.656,1.744-1.633,3.304-2.728,4.805c-0.183,0.251-0.139,0.784-0.013,1.115c0.19,0.502,0.519,0.961,0.834,1.404
			c0.719,1.011,1.817,0.672,2.872-0.057c0.686-0.475,1.254-1.119,1.872-1.691c0.264-0.245,0.52-0.499,0.825-0.698
			c-0.721,1.538-1.968,2.572-3.373,3.379c-0.883,0.508-2.175,0.342-2.741-0.742c-0.333-0.638-0.675-1.271-1.025-1.928
			c-0.496,0.383-1.056,0.758-1.548,1.207c-0.943,0.862-2.417,0.226-2.935-0.961c-0.649-1.488-0.54-3.035-0.336-4.544
			c0.386-2.855,0.948-5.686,1.387-8.534c0.072-0.467-0.111-0.973-0.176-1.46c-0.096-0.014-0.191-0.027-0.287-0.041
			c-0.197,0.245-0.435,0.467-0.585,0.738c-1.315,2.365-2.625,4.734-3.914,7.113c-0.861,1.591-1.677,3.206-2.539,4.796
			c-0.099,0.182-0.358,0.276-0.543,0.411c-0.051-0.212-0.185-0.444-0.139-0.633c0.584-2.399,1.25-4.781,1.775-7.193
			c0.254-1.17,0.3-2.394,0.343-3.597c0.013-0.361-0.303-0.734-0.468-1.102c-0.29,0.203-0.681,0.342-0.854,0.619
			c-0.902,1.443-1.836,2.877-2.594,4.397c-1.398,2.806-2.667,5.68-4.794,8.046c-0.286,0.319-0.587,0.637-0.929,0.891
			c-0.936,0.696-1.817,0.322-2.191-0.784c-0.736-2.177-0.274-4.26,0.248-6.39c0.399-1.631,0.583-3.317,0.811-4.986
			c0.037-0.267-0.196-0.571-0.304-0.858c-0.249,0.163-0.595,0.268-0.73,0.498c-0.864,1.462-1.738,2.922-2.497,4.439
			c-0.803,1.605-1.477,3.276-2.215,4.915c-0.459,1.019-0.923,2.037-1.413,3.042c-0.102,0.208-0.333,0.353-0.504,0.526
			c-0.083-0.037-0.167-0.074-0.25-0.11c0.063-0.729,0.027-1.485,0.208-2.185c0.825-3.195,1.699-6.379,2.582-9.559
			c0.243-0.875,0.207-1.714,0.058-2.56c-0.102-0.048-0.204-0.096-0.305-0.144c-0.512,0.517-1.048,1.011-1.531,1.554
			c-1.366,1.539-2.671,3.133-4.08,4.632c-0.718,0.764-1.564,1.431-2.434,2.022c-0.453,0.309-0.646,0.648-0.703,1.13
			c-0.419,3.524-0.848,7.048-1.242,10.574c-0.12,1.069-0.141,2.15-0.208,3.226c0.072,0.031,0.144,0.063,0.216,0.093
			c0.243-0.278,0.486-0.557,0.729-0.836c0.036,0.013,0.072,0.025,0.108,0.038c-0.301,0.609-0.586,1.227-0.917,1.819
			c-0.05,0.089-0.382,0.14-0.457,0.07c-0.169-0.156-0.369-0.4-0.364-0.604c0.026-1.21,0.065-2.422,0.179-3.626
			c0.151-1.602,0.375-3.196,0.569-4.795c0.237-1.941,0.477-3.883,0.713-5.825c0.011-0.093-0.007-0.19-0.018-0.431
			c-2.203,1.14-4.43,1.663-6.836,0.862c-0.823,1.21-1.548,2.47-2.464,3.573c-1.104,1.33-2.341,2.556-3.575,3.771
			c-0.859,0.846-1.797,1.613-2.724,2.386c-0.338,0.281-0.724,0.379-0.965-0.249c2.236-1.073,3.833-2.904,5.51-4.622
			c0.771-0.79,1.345-1.773,2.002-2.673c0.294-0.402,0.569-0.819,0.862-1.222c0.765-1.052,0.767-1.052,0.026-1.934
			c0.11-0.025,0.227-0.09,0.271-0.058c0.77,0.57,1.121,0.043,1.431-0.548c0.768-1.459,1.595-2.893,2.27-4.395
			c1.313-2.924,2.589-5.868,3.78-8.843c0.563-1.408,0.912-2.903,1.324-4.368c0.589-2.093,1.238-4.175,1.691-6.298
			c0.437-2.042,0.656-4.131,0.973-6.199c0.216-1.411,0.439-2.821,0.653-4.232c0.049-0.322,0.048-0.653,0.112-0.971
			c0.054-0.271,0.169-0.531,0.258-0.795c0.09,0,0.181,0,0.271,0c0.062,0.226,0.2,0.462,0.172,0.676
			c-0.146,1.133-0.357,2.259-0.501,3.392c-0.356,2.807-0.722,5.613-1.019,8.426c-0.291,2.752-0.457,5.519-0.759,8.27
			c-0.291,2.653-0.695,5.293-1.033,7.941c-0.22,1.72-0.412,3.444-0.615,5.166c-0.057,0.479-0.105,0.958-0.157,1.436
			c0.086,0.053,0.172,0.105,0.259,0.157c0.959-0.85,1.982-1.639,2.864-2.564c1.533-1.608,2.973-3.304,4.464-4.951
			c0.314-0.347,0.655-0.759,1.214-0.433c0.578,0.339,0.817,0.883,0.664,1.514c-0.626,2.58-1.287,5.151-1.936,7.727
			c-0.218,0.865-0.451,1.727-0.651,2.596c-0.052,0.225-0.008,0.473,0.129,0.744c0.286-0.596,0.59-1.184,0.854-1.79
			c0.888-2.039,1.701-4.115,2.666-6.117c0.561-1.163,1.338-2.226,2.064-3.303c0.241-0.358,0.634-0.867,1.101-0.51
			c0.366,0.281,0.649,0.829,0.718,1.295c0.085,0.582-0.043,1.21-0.159,1.803c-0.407,2.083-0.899,4.15-1.259,6.241
			c-0.215,1.252-0.122,2.517,0.557,3.664c0.246,0.417,0.473,0.572,0.955,0.218c1.399-1.03,2.313-2.451,3.13-3.914
			c1.573-2.817,3.022-5.704,4.57-8.536c0.318-0.582,0.802-1.092,1.284-1.559c0.501-0.485,1.365-0.197,1.415,0.519
			c0.083,1.19,0.134,2.416-0.054,3.585c-0.353,2.207-0.884,4.385-1.341,6.575C42.191,39.853,42.225,39.867,42.257,39.879z
			 M20.355,16.194c-0.027-0.01-0.055-0.02-0.082-0.031c-0.282,0.892-0.567,1.782-0.844,2.674c-0.765,2.465-1.435,4.965-2.313,7.389
			c-0.872,2.403-1.89,4.759-2.961,7.082c-0.759,1.646-1.719,3.198-2.579,4.798c-0.201,0.374-0.385,0.756,0.3,0.865
			c2.012,0.319,3.841-0.182,5.543-1.224c0.203-0.124,0.397-0.405,0.431-0.639c0.365-2.486,0.735-4.973,1.027-7.468
			c0.421-3.609,0.776-7.225,1.165-10.837C20.136,17.933,20.25,17.064,20.355,16.194z M53.083,42.107
			c2.175-2.094,4.615-8.627,3.947-11.368C53.336,33.707,52.355,37.582,53.083,42.107z"/>
		<path fill-rule="evenodd" clip-rule="evenodd" d="M69.627,34.474c0.305-0.163,0.935,0.024,1.282,0.254
			c0.693,0.459,0.965,1.247,1.208,2.023c0.092,0.295,0.243,0.572,0.45,1.047c0.847-1.634,1.625-3.063,2.337-4.524
			c0.989-2.032,1.984-4.064,2.874-6.141c1.107-2.583,2.073-5.225,3.168-7.813c1.125-2.658,2.38-5.25,4.151-7.563
			c0.259-0.338,0.334-0.833,0.437-1.27c0.209-0.89,0.598-1.633,1.399-2.143c1.209-0.769,2.47-0.559,3.231,0.687
			c1.109,1.815,1.604,3.826,1.672,5.948c0.016,0.472,0.095,0.942,0.155,1.512c3.091-1.132,5.207-3.444,7.52-5.665
			c-0.4,1.439-4.632,4.899-7.405,6.189c-0.163,2.359-0.203,4.679-0.507,6.964c-0.608,4.568-1.977,8.87-4.746,12.66
			c-1.194,1.635-2.449,3.203-3.99,4.499c-1.334,1.123-2.7,2.218-4.476,2.674c-1.77,0.454-3.367-0.163-4.406-1.922
			c-0.508-0.86-0.973-1.747-1.516-2.729c-0.501,0.837-0.957,1.682-1.492,2.473c-0.968,1.428-1.882,2.912-3.012,4.204
			c-0.939,1.074-1.708,1.218-2.524,0.305c-0.187-0.208-0.36-0.526-0.356-0.792c0.04-2.91,0.972-5.559,2.44-8.04
			c-0.082,0.287-0.249,0.86-0.249,0.86s-0.858,2.126-1.173,3.222c-0.288,1.004-0.42,2.052-0.613,3.082
			c-0.126,0.673,0.082,1.353,0.681,1.548c0.377,0.123,1.055-0.18,1.39-0.504c1.993-1.933,3.256-4.364,4.467-6.818
			c0.124-0.251,0.224-0.626,0.126-0.854c-0.36-0.851-0.771-1.685-1.232-2.487c-0.546-0.953-0.855-0.989-1.65-0.2
			C68.726,35.698,68.682,34.98,69.627,34.474z M85.144,12.084c-0.186,0.339-0.367,0.661-0.54,0.988
			c-1.008,1.909-2.106,3.777-2.997,5.739c-1.12,2.468-1.989,5.05-3.109,7.518c-1.783,3.923-3.687,7.791-5.526,11.688
			c-0.094,0.199-0.162,0.502-0.078,0.681c0.51,1.091,0.983,2.214,1.633,3.22c0.599,0.928,1.499,1.592,2.694,1.553
			c1.314-0.044,2.465-0.606,3.526-1.332c1.64-1.12,3.048-2.479,4.335-4.007c1.55-1.84,2.854-3.808,3.828-6
			c1.041-2.341,1.707-4.781,2.183-7.306c0.437-2.316,0.548-4.639,0.674-6.971c0.029-0.539-0.124-0.803-0.818-0.678
			c-1.598,0.288-3.98-0.596-4.692-2.196C85.846,14.059,85.528,13.095,85.144,12.084z M86.11,11.252
			c-0.862,1.476-0.03,2.664,0.629,3.831c0.669,1.184,2.723,2.133,4.922,1.472c-0.023-0.449-0.028-0.92-0.076-1.387
			c-0.207-2.047-0.521-4.068-1.663-5.85c-0.597-0.931-1.586-1.342-2.289-0.898c-0.461,0.291-0.894,0.657-1.261,1.061
			C85.848,10.06,85.783,10.923,86.11,11.252z"/>
		<path display="none" fill-rule="evenodd" clip-rule="evenodd" fill="#FFFFFF" d="M67.752,36.888
			c0.503-0.579,0.974-1.19,1.517-1.729c0.794-0.789,1.104-0.753,1.65,0.2c0.46,0.802,0.872,1.636,1.232,2.487
			c0.097,0.229-0.003,0.604-0.126,0.854c-1.21,2.454-2.474,4.886-4.467,6.818c-0.335,0.324-1.013,0.627-1.39,0.504
			c-0.599-0.195-0.807-0.875-0.681-1.548c0.193-1.03,0.325-2.078,0.613-3.082c0.315-1.096,0.782-2.146,1.173-3.222
			c0.102-0.279,0.167-0.573,0.249-0.86C67.598,37.17,67.675,37.029,67.752,36.888z"/>
		<g>
			<g>
				<path fill-rule="evenodd" clip-rule="evenodd" d="M117.983,41.711c-0.092-0.019-0.184-0.038-0.276-0.057
					c-0.09-0.285-0.263-0.572-0.257-0.855c0.026-1.272,0.037-2.551,0.175-3.813c0.266-2.425,0.905-4.759,1.899-6.994
					c0.155-0.35,0.167-0.763,0.244-1.147c-0.074-0.025-0.148-0.05-0.222-0.075c-0.14,0.188-0.315,0.36-0.415,0.567
					c-0.417,0.876-0.823,1.759-1.213,2.647c-1.065,2.421-2.11,4.851-3.185,7.268c-0.532,1.195-1.377,1.981-2.772,2.099
					c-0.555,0.047-0.875-0.142-0.887-0.624c-0.021-0.841-0.073-1.728,0.152-2.521c0.518-1.822,1.213-3.594,1.797-5.399
					c0.238-0.734,0.392-1.498,0.545-2.255c0.03-0.149-0.12-0.334-0.186-0.503c-0.135,0.079-0.304,0.129-0.397,0.243
					c-0.331,0.403-0.68,0.801-0.942,1.248c-1.528,2.602-3.339,4.996-5.295,7.286c-0.226,0.265-0.479,0.507-0.718,0.76
					c-0.087-0.332-0.077-0.585-0.008-0.82c0.608-2.07,1.242-4.133,1.831-6.208c0.142-0.499,0.296-1.884-0.042-2.269
					c-0.023-0.049-0.063-0.078-0.108-0.097c-0.01-0.006-0.018-0.006-0.025-0.007c-0.273-0.086-0.813,0.212-0.938,0.424
					c-1.011,1.725-2.008,3.459-2.944,5.226c-0.766,1.447-1.441,2.941-2.157,4.415c-0.127-0.142-0.149-0.262-0.124-0.371
					c0.548-2.312,1.11-4.62,1.649-6.933c0.197-0.846,0.365-1.7,0.489-2.559c0.027-0.189-0.19-0.413-0.295-0.621
					c-0.196,0.121-0.468,0.196-0.574,0.371c-0.452,0.748-0.866,1.519-1.273,2.293c-1.138,2.162-2.047,4.458-3.724,6.304
					c-0.275,0.304-0.645,0.8-1.102,1.248c-0.292,0.354-1.418,0.774-1.507,0.817c-0.606,0.295-1.024,0.231-1.345-0.416
					c-0.298-0.602-0.394-1.116,0.132-1.662c1.443-1.498,2.547-3.229,3.446-5.101c0.727-1.513,1.208-3.084,1.181-4.774
					c-0.004-0.258-0.159-0.64-0.354-0.732c-0.201-0.095-0.645,0.001-0.795,0.175c-0.698,0.809-1.421,1.621-1.97,2.531
					c-1.329,2.203-2.128,4.629-2.374,7.177c-0.094,0.975-0.516,1.603-1.175,2.105c-1.128,0.861-2.323,1.638-3.515,2.412
					c-1.116,0.727-1.571,0.653-2.535-0.354c0.237,1.218,1.161,1.332,2.017,1.012c1.008-0.378,1.953-0.96,2.864-1.548
					c0.812-0.525,1.54-1.18,2.344-1.808c0.379,0.657,0.392,1.623,1.469,1.568c0.959-0.049,2.48-0.988,3.083-1.764
					c0.01-0.014,1.678-2.242,2.337-3.41c0.882-1.563,1.619-3.207,2.437-4.806c0.186-0.363,0.451-0.685,0.68-1.025
					c0.085,0.029,0.171,0.057,0.256,0.085c-0.095,0.562-0.126,1.144-0.294,1.683c-0.941,3.024-1.966,6.025-2.248,9.209
					c-0.015,0.175,0.087,0.359,0.134,0.54c0.139-0.121,0.332-0.215,0.409-0.368c0.379-0.752,0.702-1.534,1.09-2.281
					c1.27-2.439,2.533-4.884,3.863-7.29c0.283-0.513,0.741-1.671,1.356-1.327c0.052,0.343,0.121,0.813,0.029,1.176
					c-0.266,1.047-1.301,3.878-1.706,5.286c-0.283,0.985-0.474,1.999-0.671,3.006c-0.03,0.155,0.125,0.346,0.195,0.521
					c0.125-0.063,0.289-0.094,0.371-0.192c0.883-1.055,1.797-2.087,2.618-3.188c1.56-2.093,3.064-4.228,4.591-6.345
					c0.049,0.004,0.099,0.009,0.148,0.014c-0.28,0.851-0.541,1.708-0.844,2.55c-0.416,1.155-0.931,2.279-1.278,3.453
					c-0.304,1.028-0.567,2.106-0.589,3.167c-0.011,0.551,0.423,1.424,0.867,1.592c0.545,0.206,1.439,0.016,1.958-0.335
					c1.551-1.047,2.375-2.671,3.025-4.387c0.35-0.924,0.758-1.826,1.14-2.739c0.108,0.153,0.139,0.282,0.104,0.39
					c-0.532,1.611-0.734,3.278-0.729,4.959c0.002,0.71,0.206,1.429,0.395,2.122c0.042,0.153,0.517,0.367,0.613,0.299
					c0.901-0.636,1.611-1.431,1.887-2.657C119.145,40.18,118.564,40.946,117.983,41.711z M98.202,28.509
					c-0.06,3.933-2.102,6.886-4.44,9.778C93.008,36.921,96.013,28.595,98.202,28.509z"/>
			</g>
		</g>
		<path fill-rule="evenodd" clip-rule="evenodd" d="M235.841,36.964c-2.282,0.648-4.625,0.671-6.945,0.518
			c-0.938-0.063-1.997-0.524-2.717-1.138c-0.975-0.832-1.649-1.972-2.202-3.195c-0.6-1.327-1.307-1.473-2.447-0.68
			c-0.837,0.582-1.537,1.354-2.348,1.979c-1.383,1.066-2.725,2.206-4.512,2.597c-0.687,0.149-1.331-0.041-1.562-0.569
			c-0.522-1.197-0.858-2.475-1.255-3.725c-0.215-0.677-0.367-1.375-0.614-2.039c-0.062-0.167-0.419-0.378-0.565-0.333
			c-0.592,0.187-0.589-0.177-0.606-0.555c-0.037-0.761-0.38-1.375-1.012-1.764c-0.529-0.326-1.253-0.234-1.729-0.759
			c-0.066-0.073-0.477,0.06-0.642,0.199c-0.654,0.554-1.262,1.165-1.912,1.725c-1.303,1.123-2.27,2.504-3.014,4.03
			c-0.794,1.627-1.503,3.297-2.24,4.951c-0.848,1.901-1.698,3.802-2.526,5.711c-0.781,1.799-1.527,3.613-2.303,5.415
			c-0.769,1.784-1.545,3.563-2.336,5.337c-0.706,1.585-1.438,3.159-2.159,4.737c-0.167-0.141-0.2-0.234-0.186-0.319
			c0.28-1.582,0.544-3.168,0.856-4.744c0.403-2.034,0.756-4.085,1.291-6.085c1.177-4.406,2.463-8.782,3.688-13.176
			c0.688-2.464,1.374-4.929,1.981-7.412c0.121-0.495,0.351-1.232-0.528-1.563c-0.235,0.281-0.559,0.528-0.693,0.853
			c-0.516,1.242-0.953,2.516-1.453,3.765c-0.43,1.074-0.833,2.168-1.381,3.182c-0.476,0.88-1.242,1.608-1.688,2.5
			c-0.494,0.986-1.342,1.501-2.185,2.044c-0.591,0.382-1.056,0.22-1.148-0.481c-0.152-1.156-0.257-2.35-0.142-3.503
			c0.146-1.445,0.554-2.863,0.803-4.3c0.056-0.324-0.081-0.681-0.129-1.023c-0.064,0.004-0.129,0.008-0.193,0.013
			c-0.453,1.926-0.816,3.879-1.384,5.771c-0.574,1.915-1.413,3.73-2.999,5.245c-0.144-0.278-0.304-0.444-0.303-0.609
			c0.006-1.039-0.062-2.095,0.103-3.112c0.271-1.677,0.779-3.306,1.822-4.69c0.783-1.039,1.616-2.042,2.472-3.023
			c0.393-0.449,0.889-0.744,1.472-0.19c0.065,0.063,0.293-0.044,0.445-0.072c0.013-0.074,0.026-0.148,0.039-0.222
			c-0.432-0.274-0.852-0.568-1.296-0.818c-0.925-0.52-1.797-0.28-2.293,0.652c-0.408,0.767-0.791,1.551-1.135,2.349
			c-0.443,1.029-0.728,2.142-1.274,3.109c-0.94,1.663-2.008,3.257-3.066,4.851c-0.706,1.062-1.385,2.158-2.557,2.814
			c-0.328,0.185-0.549,0.249-0.719-0.139c-0.118-0.268-0.303-0.54-0.313-0.816c-0.045-1.148-0.14-2.311-0.017-3.445
			c0.142-1.296,0.586-2.559,0.732-3.855c0.182-1.604,0.86-3.003,1.575-4.389c0.26-0.504,0.792-0.868,1.2-1.295
			c0.381,0.447,0.768,0.889,1.137,1.345c0.071,0.087,0.063,0.233,0.108,0.347c0.312,0.792,0.628,1.582,0.942,2.373
			c0.086,0.005,0.171,0.01,0.257,0.016c0.119-0.269,0.333-0.535,0.342-0.808c0.033-1.13,0.078-2.269-0.02-3.392
			c-0.14-1.592-1.2-2.152-2.595-1.432c-0.416,0.215-0.858,0.473-1.149,0.826c-0.857,1.042-1.575,2.17-2.133,3.388
			c-0.745,1.29-0.87,1.521-0.944,1.656c-0.531,0.971-1.049,1.95-1.549,2.938c-1.036,2.048-2.645,5.23-3.655,7.289
			c-0.005,0.009-0.005,0.022-0.009,0.033c-0.233,0.463-0.441,0.939-0.664,1.408c-0.653,1.38-1.303,2.763-1.967,4.138
			c-0.354,0.734-0.734,1.455-1.103,2.183c0.385-2.023,0.865-3.987,1.375-5.944c0.328-1.258,0.725-2.499,1.042-3.76
			c0.321-1.277,0.563-2.575,0.876-3.855c0.511-2.099,1.094-4.181,1.562-6.289c0.273-1.231,0.391-2.499,0.554-3.752
			c0.03-0.231-0.054-0.478-0.085-0.716c-0.078,0.009-0.156,0.019-0.234,0.029c-0.201,0.923-0.402,1.847-0.64,2.934
			c-0.306-0.495-0.55-0.861-0.766-1.244c-0.348-0.62-1.379-1.247-1.929-1.018c-0.487,0.203-0.98,0.538-1.309,0.945
			c-0.43,0.535-0.65,1.234-1.05,1.801c-0.931,1.32-1.382,2.828-1.709,4.364c-0.501,2.351-1.256,4.596-2.426,6.695
			c-0.304,0.547-0.7,1.03-1.598,0.746c-0.157-1.012-0.523-2.103-0.444-3.16c0.116-1.561,0.455-3.125,0.878-4.637
			c0.384-1.375,0.68-2.738,0.302-4.116c-0.167-0.609-0.574-1.288-1.078-1.639c-0.806-0.56-1.618,0.021-2.126,0.943
			c-0.692,1.258-1.406,2.549-1.802,3.916c-0.584,2.017-0.892,4.114-1.323,6.175c-0.173,0.826-0.362,1.649-0.584,2.657
			c-0.16-0.274-0.235-0.343-0.226-0.396c0.315-1.729,0.53-3.488,0.987-5.181c0.7-2.59,0.997-5.188,0.596-7.839
			c-0.105-0.696-0.397-1.377-1.175-1.811c-0.205,0.402-0.438,0.76-0.578,1.152c-0.439,1.233-0.821,2.488-1.267,3.72
			c-0.665,1.841-1.313,3.692-2.077,5.493c-0.274,0.648-0.845,1.179-1.316,1.732c-0.337,0.396-0.835,0.453-1.078-0.009
			c-0.412-0.781-0.823-1.614-0.971-2.47c-0.152-0.883-0.014-1.821,0.044-2.732c0.087-1.393,0.229-2.784,0.316-4.177
			c0.04-0.627,0.007-1.259,0.007-1.89c-0.113-0.002-0.227-0.004-0.339-0.006c-0.04,0.648-0.079,1.296-0.118,1.944
			c-0.069-0.003-0.139-0.007-0.208-0.01c-0.022-0.132-0.048-0.264-0.065-0.397c-0.085-0.638-0.103-1.293-0.271-1.908
			c-0.185-0.676-0.666-0.776-1.069-0.246c-0.401,0.528-0.829,1.085-1.041,1.701c-0.702,2.039-1.391,4.088-1.932,6.173
			c-0.419,1.611-0.63,3.277-0.433,4.964c0.031,0.26,0.03,0.629-0.123,0.786c-1.213,1.242-2.417,2.515-4.246,2.853
			c-1.029,0.19-1.969-0.215-2.422-1.124c2.029-0.385,3.018-1.891,3.692-3.609c0.737-1.878,1.353-3.806,1.962-5.73
			c0.382-1.207,0.716-2.435,0.965-3.675c0.479-2.379,0.856-4.779,1.32-7.162c0.371-1.908,0.83-3.799,1.208-5.706
			c0.487-2.459,0.955-4.923,1.375-7.394c0.084-0.498,0.271-1.115-0.415-1.589c-1.395,10.239-5.071,19.464-11.862,27.409
			c-0.095-0.761-0.188-1.515-0.282-2.269c-0.131-1.04-0.529-1.556-1.432-1.592c-0.163,1.822-0.382,3.653-0.466,5.491
			c-0.042,0.905-0.03,1.732-0.749,2.434c-0.663,0.647-1.186,1.44-1.846,2.092c-1.193,1.177-2.408,2.339-3.685,3.425
			c-0.736,0.627-1.414,0.358-1.722-0.535c-0.045-0.131-0.086-0.264-0.129-0.395c-0.075,0.264-0.021,0.477,0.01,0.693
			c0.14,0.947,0.59,1.242,1.455,0.811c0.727-0.363,1.477-0.774,2.05-1.335c1.414-1.384,2.739-2.86,4.084-4.313
			c0.218-0.235,0.357-0.544,0.539-0.828c0.239,0.26,0.287,0.29,0.303,0.333c0.053,0.141,0.098,0.285,0.138,0.43
			c0.357,1.303,1.048,2.314,2.355,2.846c0.275,0.112,0.506,0.383,0.707,0.622c0.572,0.681,1.284,1.279,2.152,1.224
			c1.511-0.095,2.838-0.77,3.949-1.825c0.41-0.39,0.839-0.759,1.277-1.154c0.766,1.822,1.729,1.899,2.79,0.372
			c0.485-0.699,0.775-1.547,1.076-2.355c0.251-0.674,0.389-1.39,0.626-2.269c0.256,0.728,0.349,1.305,0.646,1.745
			c0.308,0.456,0.762,0.958,1.249,1.097c0.343,0.098,1.013-0.27,1.251-0.622c0.632-0.937,1.222-1.936,1.624-2.988
			c0.784-2.051,1.424-4.156,2.135-6.235c0.267-0.782,0.567-1.552,0.912-2.493c0.213,0.348,0.352,0.502,0.409,0.682
			c0.599,1.841,0.582,3.746,0.312,5.612c-0.223,1.538-0.818,3.018-1.126,4.548c-0.252,1.254-0.354,2.541-0.457,3.818
			c-0.037,0.453,0.063,0.953,0.658,1.127c0.213-0.733,0.459-1.417,0.606-2.122c0.494-2.372,0.886-4.768,1.449-7.123
			c0.43-1.799,1.059-3.548,2.417-4.917c0.626-0.631,1.216-0.562,1.677,0.305c0.556,1.044,0.638,2.198,0.363,3.366
			c-0.38,1.619-0.721,3.248-1.13,4.86c-0.374,1.472-0.066,2.876,0.36,4.261c0.109,0.356,0.5,0.884,0.756,0.88
			c0.389-0.005,0.891-0.32,1.133-0.656c0.461-0.641,0.776-1.388,1.145-2.095c0.23-0.441,0.447-0.891,0.67-1.337
			c0.215,0.527,0.179,1.039,0.342,1.478c0.271,0.733,0.569,1.5,1.045,2.102c0.484,0.612,1.504,0.347,2.232-0.451
			c0.447-0.488,0.875-0.995,1.312-1.494c0.15,0.189,0.17,0.289,0.147,0.378c-0.509,2.015-0.988,4.037-1.542,6.038
			c-0.727,2.628-1.472,5.252-2.286,7.853c-0.608,1.944-1.349,3.846-2.008,5.773c-0.271,0.79-0.51,1.594-0.704,2.405
			c-0.054,0.221,0.104,0.493,0.164,0.742c1.452-3.533,2.659-7.025,3.983-10.473c0.742-1.93,1.675-3.787,2.529-5.675
			c0.495-1.092,0.996-2.18,1.497-3.269c0,0.002,0,0.006,0,0.009c0,0,0.523-1.123,0.521-1.125c0.142-0.207,0.356-0.529,0.472-0.75
			c1.366-2.616,2.732-5.233,4.08-7.859c0.226-0.441,0.39-0.915,1.272-2.673c0.284-0.502,0.571-1.002,0.871-1.495
			c0.646-1.06,1.18-2.205,2.407-2.791c0.793-0.378,1.173-0.388,1.609,0.359c0.766,1.311,0.465,2.747,0.386,4.163
			c-0.209-0.248-0.321-0.514-0.407-0.789c-0.301-0.963-0.632-1.888-1.431-2.598c-0.352-0.312-0.615-0.328-0.89-0.049
			c-0.417,0.425-0.879,0.85-1.152,1.365c-1.158,2.176-1.915,4.505-2.214,6.947c-0.203,1.659-0.225,3.342-0.286,5.016
			c-0.026,0.715,0.477,1.213,1.017,1.522c0.584,0.335,0.991-0.163,1.397-0.563c1.456-1.434,2.552-3.123,3.573-4.872
			c0.148-0.254,0.364-0.469,0.548-0.702c0.111,0.258,0.065,0.426,0.06,0.595c-0.04,1.051-0.687,2.084-0.104,3.153
			c0.199,0.366,0.415,0.724,0.623,1.086c0.396-0.271,0.911-0.461,1.161-0.83c0.526-0.775,0.917-1.643,1.354-2.477
			c0.227-0.432,0.433-0.875,0.669-1.357c0.174,0.871,0.264,1.636,0.485,2.36c0.263,0.86,1.25,1.255,1.836,0.771
			c1.502-1.241,2.837-2.654,3.661-4.433c1.099-2.371,2.08-4.796,3.12-7.195c0.083-0.19,0.231-0.351,0.35-0.525
			c0.09,0.039,0.179,0.079,0.269,0.118c-0.415,1.644-0.793,3.298-1.254,4.929c-0.445,1.575-0.989,3.123-1.467,4.689
			c-0.413,1.354-0.807,2.713-1.187,4.077c-0.476,1.706-0.966,3.41-1.379,5.133c-0.456,1.904-0.845,3.826-1.24,5.746
			c-0.452,2.196-0.852,4.404-1.327,6.597c-0.301,1.381-0.715,2.737-1.047,4.112c-0.107,0.443-0.114,0.91-0.167,1.366
			c0.093,0.025,0.185,0.05,0.277,0.075c0.134-0.217,0.309-0.418,0.395-0.651c0.246-0.666,0.399-1.37,0.691-2.014
			c1.043-2.301,2.158-4.569,3.187-6.876c0.784-1.762,1.451-3.576,2.218-5.346c1.012-2.335,2.056-4.657,3.112-6.973
			c1.447-3.17,2.883-6.346,4.397-9.483c0.583-1.208,1.508-2.193,2.777-3.135c-0.298,0.973-0.543,1.747-0.771,2.525
			c-0.609,2.083-0.966,4.21-0.775,6.379c0.045,0.518,0.489,0.999,0.75,1.497c0.388-0.209,0.869-0.335,1.143-0.645
			c0.509-0.575,0.928-1.238,1.326-1.899c0.542-0.901,1.106-1.802,1.521-2.764c0.403-0.939,1.475-1.491,1.466-2.669
			c-0.002-0.228,0.351-0.459,0.54-0.689c0.169,0.255,0.418,0.489,0.492,0.769c0.39,1.474,0.694,2.972,1.11,4.438
			c0.316,1.117,1.565,1.819,2.623,1.352c1.363-0.601,2.681-1.347,3.919-2.179c0.974-0.654,1.784-1.55,2.692-2.308
			c0.918-0.767,1.72-0.515,2.147,0.614c0.168,0.443,0.391,0.866,0.61,1.287c1.309,2.51,3.568,3.406,6.192,3.317
			c1.901-0.064,3.802-0.454,5.68-0.813c0.896-0.171,1.741-0.608,2.609-0.926C237.774,36.507,236.796,36.693,235.841,36.964z
			 M188.996,27.842c-0.809,0.932-1.628,1.875-2.506,2.886C186.995,28.687,188.01,27.567,188.996,27.842z M133.494,35.895
			c0-0.943-0.064-1.893,0.019-2.829c0.083-0.947,0.312-1.881,0.515-3.038c0.952,1.285,0.875,2.593,0.852,3.779
			c-0.015,0.734-0.706,1.455-1.094,2.181C133.688,35.957,133.592,35.926,133.494,35.895z M133.752,37.354
			c-0.205-0.601-0.016-0.88,1.191-2.162c0.313,1.652,0.619,3.269,0.937,4.942C134.489,39.673,134.14,38.488,133.752,37.354z
			 M136.395,39.952c-0.531-1.777-1.071-3.577-0.875-5.439c0.067-0.641,0.703-1.228,1.097-1.829c1.445-2.206,2.958-4.371,4.327-6.623
			c0.949-1.56,1.751-3.216,2.528-4.871c0.49-1.043,0.815-2.165,1.214-3.25c0.233-0.638,0.465-1.276,0.698-1.915
			c0.059,0.015,0.116,0.03,0.175,0.046c-0.291,1.572-0.547,3.152-0.882,4.715c-0.848,3.943-1.665,7.896-2.627,11.812
			c-0.515,2.093-1.228,4.155-2.433,5.982c-0.562,0.854-1.301,1.531-2.348,1.791C136.836,40.479,136.536,40.424,136.395,39.952z
			 M148.474,32.359c-0.382,2.111-0.816,4.212-1.246,6.314c-0.193,0.941-1.11,1.286-1.684,1.911c-0.064,0.07-0.529-0.086-0.665-0.253
			c-0.327-0.401-0.633-0.85-0.238-1.411c0.514-0.733,1.044-1.462,1.491-2.236c1.091-1.888,1.776-3.935,2.218-6.064
			c0.036-0.175-0.032-0.372-0.053-0.56c-0.005,0.003-0.011,0.009-0.016,0.012c0-0.003,0-0.006,0-0.01
			c-0.088,0.047-0.226,0.085-0.231,0.138c-0.249,2.255-1.107,4.299-2.188,6.257c-0.395,0.716-0.917,1.361-1.382,2.04
			c-0.09-0.023-0.18-0.047-0.271-0.069c0.095-1.277,0.034-2.59,0.317-3.824c0.562-2.452,1.285-4.869,2.011-7.279
			c0.146-0.487,0.548-0.931,0.923-1.305c0.403-0.402,0.672-0.052,0.705,0.337c0.082,0.969,0.097,1.944,0.131,2.917
			c0.009,0.263-0.009,0.526-0.015,0.79c0.005-0.002,0.011-0.004,0.015-0.006c0,0.001,0.001,0.002,0.001,0.004
			c0.093-0.074,0.19-0.152,0.418-0.334C148.632,30.685,148.622,31.535,148.474,32.359z M168.084,40.38
			c-0.522,0.267-0.987,0.158-1.189-0.45c-0.311-0.934-0.588-1.88-0.897-2.879c0.34-1.431,0.59-2.86,1.03-4.229
			c0.388-1.207,0.925-2.379,1.516-3.504c0.391-0.744,0.943-1.422,1.512-2.05c0.644-0.71,1.718-0.444,1.993,0.504
			c0.355,1.223,0.508,2.488,0.27,3.759c-0.28,1.497-0.5,3.015-0.918,4.475C170.869,37.862,169.888,39.46,168.084,40.38z
			 M208.385,34.139c-0.546,0.911-1.001,1.878-1.568,2.774c-0.453,0.716-0.991,1.383-1.543,2.026
			c-0.221,0.258-0.554,0.277-0.668-0.175c-0.133-0.528-0.252-1.06-0.378-1.591c0.234-1.41,0.428-2.79,0.702-4.153
			c0.196-0.971,0.46-1.933,0.775-2.872c0.185-0.551,0.49-1.077,0.823-1.557c0.115-0.165,0.513-0.263,0.72-0.199
			s0.422,0.348,0.487,0.577c0.247,0.86,0.435,1.738,0.644,2.609c0.028,0.12,0.01,0.282,0.083,0.354
			C209.236,32.704,208.825,33.402,208.385,34.139z M209.296,32.201c-0.105,0.018-0.21,0.036-0.315,0.054
			c-0.344-1.281-0.688-2.563-1.032-3.844c0.088-0.081,0.176-0.161,0.264-0.241c0.366,0.213,0.907,0.338,1.067,0.656
			C209.834,29.924,210.197,31.089,209.296,32.201z"/>
		<path fill-rule="evenodd" clip-rule="evenodd" d="M121.539,19.238c0.121,0.781,0.223,1.432,0.325,2.093
			C121.136,21.21,121.055,20.724,121.539,19.238z"/>
		<path fill-rule="evenodd" clip-rule="evenodd" d="M101.521,8.985c-0.565,0.628-1.13,1.257-1.695,1.885
			c-0.058-0.051-0.115-0.103-0.173-0.154c0.566-0.627,1.132-1.254,1.699-1.882C101.408,8.885,101.465,8.935,101.521,8.985z"/>
		<path display="none" fill-rule="evenodd" clip-rule="evenodd" fill="#FFFFFF" d="M20.355,16.194
			c-0.105,0.87-0.22,1.738-0.313,2.609c-0.389,3.612-0.743,7.229-1.165,10.837c-0.292,2.495-0.662,4.982-1.027,7.468
			c-0.034,0.233-0.228,0.515-0.431,0.639c-1.702,1.042-3.532,1.543-5.543,1.224c-0.686-0.109-0.501-0.491-0.3-0.865
			c0.86-1.6,1.82-3.152,2.579-4.798c1.071-2.322,2.089-4.678,2.961-7.082c0.879-2.424,1.549-4.923,2.313-7.389
			c0.277-0.893,0.563-1.783,0.844-2.674C20.301,16.174,20.328,16.184,20.355,16.194z"/>
		<path display="none" fill-rule="evenodd" clip-rule="evenodd" fill="#FFFFFF" d="M53.083,42.107
			c-0.727-4.525,0.254-8.4,3.947-11.368C57.697,33.48,55.257,40.013,53.083,42.107z"/>
		<path display="none" fill-rule="evenodd" clip-rule="evenodd" fill="#FFFFFF" d="M145.559,16.071
			c-0.291,1.572-0.547,3.152-0.882,4.715c-0.848,3.943-1.665,7.896-2.627,11.812c-0.515,2.093-1.228,4.155-2.433,5.982
			c-0.562,0.854-1.301,1.531-2.348,1.791c-0.434,0.107-0.733,0.053-0.875-0.42c-0.531-1.777-1.071-3.577-0.875-5.439
			c0.067-0.641,0.703-1.228,1.097-1.829c1.445-2.206,2.958-4.371,4.327-6.623c0.949-1.56,1.751-3.216,2.528-4.871
			c0.49-1.043,0.815-2.165,1.214-3.25c0.233-0.638,0.465-1.276,0.698-1.915C145.442,16.041,145.5,16.056,145.559,16.071z"/>
		<path display="none" fill-rule="evenodd" clip-rule="evenodd" fill="#FFFFFF" d="M165.997,37.051c0.34-1.431,0.59-2.86,1.03-4.229
			c0.388-1.207,0.925-2.379,1.516-3.504c0.391-0.744,0.943-1.422,1.512-2.05c0.644-0.71,1.718-0.444,1.993,0.504
			c0.355,1.223,0.508,2.488,0.27,3.759c-0.28,1.497-0.5,3.015-0.918,4.475c-0.53,1.855-1.512,3.454-3.315,4.374
			c-0.522,0.267-0.987,0.158-1.189-0.45C166.584,38.997,166.307,38.05,165.997,37.051z"/>
		<path display="none" fill-rule="evenodd" clip-rule="evenodd" fill="#FFFFFF" d="M148.293,30.06
			c-0.084,0.047-0.237,0.086-0.243,0.141c-0.249,2.255-1.107,4.299-2.188,6.257c-0.395,0.716-0.917,1.361-1.382,2.04
			c-0.09-0.023-0.18-0.047-0.271-0.069c0.095-1.277,0.034-2.59,0.317-3.824c0.562-2.452,1.285-4.869,2.011-7.279
			c0.146-0.487,0.548-0.931,0.923-1.305c0.403-0.402,0.672-0.052,0.705,0.337c0.082,0.969,0.097,1.944,0.131,2.917
			c0.009,0.266-0.009,0.533-0.015,0.799L148.293,30.06z"/>
		<path display="none" fill-rule="evenodd" clip-rule="evenodd" fill="#FFFFFF" d="M148.281,30.073
			c0.098-0.078,0.195-0.156,0.434-0.346c-0.083,0.958-0.093,1.809-0.241,2.633c-0.382,2.111-0.816,4.212-1.246,6.314
			c-0.193,0.941-1.11,1.286-1.684,1.911c-0.064,0.07-0.529-0.086-0.665-0.253c-0.327-0.401-0.633-0.85-0.238-1.411
			c0.514-0.733,1.044-1.462,1.491-2.236c1.091-1.888,1.776-3.935,2.218-6.064c0.036-0.176-0.033-0.375-0.055-0.562
			C148.293,30.06,148.281,30.073,148.281,30.073z"/>
		<path display="none" fill-rule="evenodd" clip-rule="evenodd" fill="#FFFFFF" d="M134.027,30.028
			c0.952,1.285,0.875,2.593,0.852,3.779c-0.015,0.734-0.706,1.455-1.094,2.181c-0.097-0.031-0.193-0.062-0.291-0.093
			c0-0.943-0.064-1.893,0.019-2.829C133.596,32.119,133.824,31.185,134.027,30.028z"/>
		<path display="none" fill-rule="evenodd" clip-rule="evenodd" fill="#FFFFFF" d="M135.88,40.134
			c-1.391-0.461-1.74-1.646-2.128-2.78c-0.205-0.601-0.016-0.88,1.191-2.162C135.257,36.844,135.563,38.461,135.88,40.134z"/>
		<path display="none" fill-rule="evenodd" clip-rule="evenodd" fill="#FFFFFF" d="M204.228,37.173
			c0.234-1.41,0.428-2.79,0.702-4.153c0.196-0.971,0.46-1.933,0.775-2.872c0.185-0.551,0.49-1.077,0.823-1.557
			c0.115-0.165,0.513-0.263,0.72-0.199s0.422,0.348,0.487,0.577c0.247,0.86,0.435,1.738,0.644,2.609
			c0.028,0.12,0.01,0.282,0.083,0.354c0.774,0.771,0.363,1.469-0.077,2.205c-0.546,0.911-1.001,1.878-1.568,2.774
			c-0.453,0.716-0.991,1.383-1.543,2.026c-0.221,0.258-0.554,0.277-0.668-0.175C204.473,38.236,204.354,37.705,204.228,37.173z"/>
		<path display="none" fill-rule="evenodd" clip-rule="evenodd" fill="#FFFFFF" d="M208.98,32.255
			c-0.344-1.281-0.688-2.563-1.032-3.844c0.088-0.081,0.176-0.161,0.264-0.241c0.366,0.213,0.907,0.338,1.067,0.656
			c0.555,1.099,0.918,2.264,0.017,3.375C209.19,32.219,209.086,32.237,208.98,32.255z"/>
		<path display="none" fill-rule="evenodd" clip-rule="evenodd" fill="#FFFFFF" d="M186.49,30.728
			c0.505-2.042,1.52-3.161,2.506-2.886C188.188,28.774,187.368,29.717,186.49,30.728z"/>
		<path display="none" fill-rule="evenodd" clip-rule="evenodd" fill="#FFFFFF" d="M85.144,12.084
			c0.384,1.011,0.702,1.975,1.113,2.897c0.712,1.6,3.095,2.484,4.692,2.196c0.695-0.125,0.848,0.139,0.818,0.678
			c-0.125,2.332-0.237,4.655-0.674,6.971c-0.477,2.525-1.142,4.965-2.183,7.306c-0.975,2.192-2.278,4.16-3.828,6
			c-1.287,1.528-2.695,2.887-4.335,4.007c-1.061,0.726-2.212,1.288-3.526,1.332c-1.196,0.039-2.096-0.625-2.694-1.553
			c-0.65-1.006-1.123-2.129-1.633-3.22c-0.083-0.179-0.016-0.481,0.078-0.681c1.839-3.897,3.743-7.765,5.526-11.688
			c1.121-2.468,1.99-5.049,3.109-7.518c0.891-1.962,1.989-3.831,2.997-5.739C84.777,12.745,84.958,12.423,85.144,12.084z"/>
		<path display="none" fill-rule="evenodd" clip-rule="evenodd" fill="#FFFFFF" d="M86.11,11.252
			c-0.327-0.329-0.262-1.193,0.264-1.771c0.367-0.404,0.8-0.77,1.261-1.061c0.703-0.444,1.692-0.033,2.289,0.898
			c1.141,1.782,1.456,3.802,1.663,5.85c0.047,0.467,0.052,0.938,0.076,1.387c-2.199,0.662-4.252-0.288-4.922-1.472
			C86.08,13.917,85.248,12.728,86.11,11.252z"/>
		<path display="none" fill-rule="evenodd" clip-rule="evenodd" fill="#FFFFFF" d="M98.202,28.509
			c-0.06,3.933-2.102,6.886-4.44,9.778C93.008,36.921,96.013,28.595,98.202,28.509z"/>
	</g>
</g>
</svg>
