<svg xmlns="http://www.w3.org/2000/svg" width="239.5" height="64.083" viewBox="0 0 239.5 64.083">
    <path fill-rule="evenodd" clip-rule="evenodd" d="M42.257 39.88c.554-1.064 1.084-2.14 1.666-3.19 1.378-2.486 2.76-4.97 4.194-7.425.224-.383.62-1.043 1.24-.495.263.23.422.7.436 1.067.03.8.003 1.617-.123 2.407-.322 2.005-.797 3.99-1.047 6.002-.21 1.686-.58 3.413.128 5.09.434 1.022 1.02 1.334 2.012.862.636-.303 1.17-.834 1.708-1.313.13-.115.125-.428.112-.645-.042-.75-.074-1.506-.186-2.248-.224-1.487.048-2.926.5-4.307.684-2.083 2.007-3.776 3.61-5.246.188-.174.628-.33.78-.23.224.148.41.53.412.812.018 2.35-.635 4.564-1.452 6.737-.656 1.743-1.633 3.303-2.728 4.804-.183.25-.14.784-.013 1.115.19.5.52.96.834 1.403.718 1.01 1.816.672 2.87-.057.687-.475 1.255-1.12 1.873-1.69.264-.246.52-.5.825-.7-.72 1.54-1.968 2.573-3.373 3.38-.883.508-2.175.342-2.74-.742-.334-.638-.676-1.27-1.026-1.928-.497.383-1.057.758-1.55 1.207-.942.862-2.416.226-2.934-.96-.65-1.49-.54-3.036-.336-4.545.386-2.855.948-5.686 1.387-8.534.072-.467-.11-.973-.176-1.46l-.286-.04c-.197.244-.435.466-.585.737-1.316 2.366-2.626 4.735-3.915 7.114-.86 1.59-1.677 3.206-2.54 4.796-.098.182-.357.276-.542.41-.05-.21-.185-.443-.14-.632.585-2.4 1.25-4.78 1.776-7.193.253-1.17.3-2.394.342-3.597.013-.36-.303-.734-.468-1.102-.29.203-.68.342-.854.62-.902 1.442-1.836 2.876-2.594 4.396-1.398 2.806-2.667 5.68-4.794 8.046-.286.32-.587.637-.93.89-.935.697-1.816.323-2.19-.783-.736-2.177-.274-4.26.248-6.39.4-1.63.583-3.317.81-4.986.038-.268-.195-.572-.303-.86-.25.164-.595.27-.73.5-.864 1.46-1.738 2.92-2.497 4.438-.803 1.605-1.477 3.276-2.215 4.915-.46 1.02-.923 2.037-1.413 3.042-.102.208-.333.353-.504.526l-.25-.11c.063-.728.027-1.484.208-2.184.825-3.195 1.7-6.38 2.582-9.56.243-.874.207-1.713.058-2.56l-.305-.143c-.51.517-1.047 1.01-1.53 1.554-1.366 1.54-2.67 3.133-4.08 4.632-.718.763-1.564 1.43-2.434 2.02-.453.31-.646.65-.703 1.13-.42 3.525-.848 7.05-1.242 10.575-.12 1.07-.14 2.15-.207 3.226.072.032.144.064.216.094l.728-.836.108.038c-.3.61-.586 1.227-.917 1.82-.05.088-.383.14-.458.07-.17-.157-.37-.4-.364-.605.026-1.21.065-2.42.18-3.625.15-1.602.374-3.196.568-4.795.237-1.94.477-3.883.713-5.825.01-.093-.008-.19-.02-.43-2.202 1.14-4.43 1.662-6.835.86-.823 1.21-1.548 2.47-2.464 3.574-1.103 1.33-2.34 2.555-3.574 3.77-.86.846-1.797 1.613-2.724 2.386-.338.28-.724.38-.965-.25 2.236-1.072 3.833-2.903 5.51-4.62.77-.79 1.345-1.774 2.002-2.674.293-.402.568-.82.86-1.222.766-1.052.768-1.052.027-1.934.11-.025.227-.09.27-.058.77.57 1.122.043 1.432-.548.767-1.46 1.594-2.893 2.27-4.395 1.312-2.924 2.588-5.868 3.78-8.843.562-1.408.91-2.903 1.323-4.368.59-2.093 1.238-4.175 1.69-6.298.438-2.042.657-4.13.974-6.2.216-1.41.44-2.82.653-4.23.05-.323.048-.654.112-.972.054-.27.17-.53.258-.795h.27c.063.225.2.46.173.675-.146 1.133-.357 2.26-.5 3.392-.357 2.807-.723 5.613-1.02 8.426-.29 2.752-.457 5.52-.76 8.27-.29 2.653-.694 5.293-1.032 7.94-.22 1.72-.41 3.445-.614 5.167-.057.48-.105.958-.157 1.436.085.053.17.105.258.157.96-.85 1.982-1.64 2.864-2.564 1.533-1.61 2.973-3.305 4.464-4.952.314-.347.655-.76 1.214-.433.578.34.817.883.664 1.514-.626 2.58-1.287 5.15-1.936 7.726-.218.865-.45 1.727-.65 2.596-.053.225-.01.473.128.744.286-.596.59-1.184.854-1.79.888-2.04 1.7-4.115 2.666-6.117.56-1.164 1.338-2.227 2.064-3.304.24-.358.634-.867 1.1-.51.367.28.65.83.72 1.295.084.583-.044 1.21-.16 1.804-.407 2.083-.9 4.15-1.26 6.24-.214 1.253-.12 2.518.558 3.665.246.416.473.57.955.217 1.4-1.03 2.313-2.45 3.13-3.914 1.573-2.817 3.022-5.704 4.57-8.536.318-.582.802-1.092 1.284-1.56.5-.484 1.365-.196 1.415.52.083 1.19.134 2.416-.054 3.585-.353 2.207-.884 4.385-1.34 6.575.033.016.067.03.1.042zM20.355 16.193l-.082-.03c-.282.89-.567 1.78-.844 2.673-.766 2.465-1.436 4.965-2.314 7.39-.872 2.402-1.89 4.758-2.96 7.08-.76 1.647-1.72 3.2-2.58 4.8-.2.373-.385.755.3.864 2.012.32 3.84-.18 5.543-1.223.202-.124.396-.405.43-.64.365-2.485.735-4.972 1.027-7.467.42-3.61.776-7.225 1.165-10.837.094-.87.208-1.74.313-2.61zm32.728 25.913c2.175-2.094 4.615-8.627 3.947-11.368-3.694 2.967-4.675 6.842-3.947 11.367zM69.627 34.474c.305-.163.935.024 1.282.254.692.46.964 1.247 1.207 2.023.092.296.243.573.45 1.048.847-1.634 1.625-3.063 2.337-4.524.99-2.032 1.984-4.064 2.874-6.14 1.107-2.584 2.073-5.226 3.168-7.814 1.125-2.658 2.38-5.25 4.15-7.563.26-.338.335-.833.438-1.27.21-.89.598-1.633 1.4-2.143 1.208-.77 2.47-.56 3.23.687 1.11 1.816 1.604 3.827 1.672 5.95.016.47.095.94.155 1.51 3.092-1.13 5.208-3.443 7.52-5.664-.4 1.44-4.63 4.9-7.404 6.19-.163 2.358-.203 4.678-.507 6.963-.61 4.567-1.978 8.87-4.747 12.66-1.194 1.634-2.45 3.202-3.99 4.498-1.334 1.123-2.7 2.218-4.476 2.674-1.77.454-3.367-.163-4.406-1.922-.507-.86-.972-1.747-1.515-2.73-.5.838-.957 1.683-1.492 2.474-.968 1.428-1.882 2.912-3.012 4.204-.938 1.074-1.707 1.218-2.523.305-.187-.208-.36-.526-.356-.792.04-2.91.973-5.558 2.44-8.04-.08.288-.248.86-.248.86s-.858 2.127-1.173 3.223c-.29 1.004-.42 2.052-.614 3.082-.126.673.082 1.353.68 1.548.378.123 1.056-.18 1.39-.504 1.994-1.934 3.257-4.365 4.468-6.82.124-.25.224-.625.126-.853-.36-.85-.77-1.685-1.232-2.487-.546-.953-.855-.99-1.65-.2-.542.538-.586-.18.36-.686zm15.517-22.39c-.186.34-.367.66-.54.988-1.008 1.91-2.106 3.777-2.997 5.74-1.12 2.467-1.99 5.05-3.11 7.517-1.782 3.922-3.686 7.79-5.525 11.687-.094.2-.162.502-.078.68.51 1.092.983 2.215 1.633 3.22.6.93 1.5 1.593 2.694 1.554 1.315-.043 2.466-.605 3.527-1.33 1.64-1.12 3.048-2.48 4.335-4.008 1.55-1.84 2.854-3.808 3.828-6 1.04-2.34 1.707-4.78 2.183-7.306.437-2.316.548-4.64.674-6.97.03-.54-.124-.804-.818-.68-1.6.29-3.98-.595-4.693-2.195-.41-.92-.73-1.885-1.113-2.896zm.966-.832c-.862 1.476-.03 2.664.63 3.83.668 1.185 2.722 2.134 4.92 1.473-.022-.45-.027-.92-.075-1.387-.207-2.047-.52-4.068-1.663-5.85-.597-.93-1.586-1.342-2.29-.898-.46.29-.893.657-1.26 1.06-.524.58-.59 1.443-.262 1.772zM117.983 41.71l-.276-.056c-.09-.285-.263-.572-.257-.855.026-1.273.037-2.552.175-3.814.266-2.425.905-4.76 1.9-6.994.154-.35.166-.763.243-1.147l-.222-.075c-.14.188-.315.36-.415.567-.416.876-.822 1.76-1.212 2.647-1.065 2.42-2.11 4.85-3.185 7.268-.532 1.195-1.377 1.98-2.772 2.1-.554.046-.874-.143-.886-.625-.02-.84-.073-1.728.152-2.52.518-1.823 1.213-3.595 1.797-5.4.238-.734.392-1.498.545-2.255.03-.15-.12-.334-.186-.503-.135.078-.304.128-.397.242-.33.403-.68.8-.942 1.248-1.528 2.602-3.34 4.996-5.295 7.286-.226.265-.48.507-.718.76-.087-.332-.077-.585-.008-.82.608-2.07 1.242-4.133 1.83-6.208.143-.5.297-1.884-.04-2.27-.024-.048-.064-.077-.11-.096-.01-.006-.017-.006-.024-.007-.273-.086-.813.212-.938.424-1.01 1.724-2.008 3.458-2.944 5.225-.766 1.447-1.44 2.94-2.157 4.415-.128-.142-.15-.262-.125-.37.548-2.313 1.11-4.62 1.65-6.934.196-.846.364-1.7.488-2.56.027-.188-.19-.412-.295-.62-.196.12-.468.196-.574.37-.452.75-.866 1.52-1.273 2.294-1.137 2.162-2.046 4.458-3.723 6.304-.275.304-.645.8-1.102 1.248-.292.354-1.418.774-1.507.817-.606.294-1.024.23-1.345-.417-.298-.602-.394-1.116.132-1.662 1.443-1.497 2.547-3.228 3.446-5.1.728-1.513 1.21-3.084 1.182-4.774-.004-.258-.16-.64-.354-.732-.2-.095-.645 0-.795.175-.698.808-1.42 1.62-1.97 2.53-1.33 2.203-2.128 4.63-2.374 7.177-.095.975-.517 1.603-1.176 2.105-1.128.86-2.323 1.638-3.515 2.412-1.117.727-1.572.653-2.536-.354.237 1.218 1.16 1.332 2.017 1.012 1.01-.378 1.954-.96 2.865-1.548.812-.525 1.54-1.18 2.344-1.808.378.657.39 1.623 1.468 1.568.96-.05 2.48-.988 3.083-1.764.01-.014 1.68-2.242 2.338-3.41.882-1.563 1.62-3.207 2.437-4.806.186-.363.45-.685.68-1.025l.256.084c-.094.562-.125 1.144-.293 1.683-.94 3.024-1.966 6.025-2.248 9.21-.016.174.086.358.133.54.14-.122.332-.216.41-.37.378-.75.7-1.533 1.09-2.28 1.27-2.44 2.532-4.884 3.862-7.29.283-.513.74-1.67 1.356-1.327.053.343.122.813.03 1.176-.266 1.047-1.3 3.878-1.706 5.286-.283.985-.474 2-.67 3.006-.03.155.124.346.194.52.125-.062.29-.093.37-.19.884-1.056 1.798-2.088 2.62-3.19 1.56-2.092 3.063-4.227 4.59-6.344l.148.014c-.28.85-.54 1.708-.844 2.55-.416 1.155-.93 2.28-1.278 3.453-.304 1.03-.567 2.107-.59 3.168-.01.55.424 1.424.868 1.592.545.206 1.44.016 1.958-.335 1.55-1.047 2.375-2.67 3.025-4.387.35-.924.758-1.826 1.14-2.74.108.154.14.283.104.39-.533 1.612-.735 3.28-.73 4.96.002.71.206 1.43.395 2.122.042.153.517.367.613.3.9-.637 1.61-1.432 1.887-2.658l-1.812 2.39zm-19.78-13.2c-.06 3.932-2.103 6.885-4.44 9.777-.755-1.366 2.25-9.692 4.44-9.778zM235.84 36.964c-2.28.648-4.624.67-6.944.518-.938-.063-1.997-.524-2.717-1.138-.976-.832-1.65-1.972-2.203-3.195-.6-1.328-1.307-1.474-2.447-.68-.837.58-1.537 1.353-2.348 1.978-1.383 1.066-2.725 2.206-4.512 2.597-.687.15-1.33-.04-1.562-.57-.522-1.196-.858-2.474-1.255-3.724-.215-.676-.367-1.374-.614-2.038-.063-.167-.42-.378-.566-.333-.592.186-.59-.178-.606-.556-.037-.76-.38-1.375-1.012-1.764-.53-.326-1.253-.234-1.73-.76-.065-.072-.476.06-.64.2-.655.554-1.263 1.165-1.913 1.725-1.303 1.123-2.27 2.504-3.014 4.03-.795 1.627-1.504 3.297-2.24 4.95-.85 1.902-1.7 3.803-2.527 5.712-.78 1.8-1.527 3.613-2.303 5.415-.77 1.784-1.545 3.563-2.336 5.337-.706 1.584-1.438 3.158-2.16 4.736-.166-.14-.2-.234-.185-.32.28-1.58.543-3.167.855-4.743.403-2.034.756-4.085 1.29-6.085 1.178-4.406 2.464-8.782 3.69-13.176.687-2.464 1.373-4.93 1.98-7.412.12-.495.35-1.232-.528-1.563-.235.28-.56.528-.693.853-.516 1.242-.953 2.516-1.453 3.765-.43 1.074-.832 2.168-1.38 3.182-.476.88-1.242 1.608-1.688 2.5-.494.986-1.342 1.5-2.185 2.044-.59.383-1.056.22-1.148-.48-.153-1.156-.258-2.35-.143-3.503.146-1.445.554-2.863.803-4.3.056-.324-.08-.68-.13-1.023l-.192.013c-.453 1.926-.816 3.88-1.384 5.77-.574 1.916-1.413 3.73-3 5.246-.143-.278-.303-.444-.302-.61.006-1.038-.062-2.094.103-3.11.27-1.678.78-3.307 1.822-4.69.783-1.04 1.616-2.043 2.472-3.024.392-.45.888-.745 1.47-.19.066.062.294-.045.446-.073l.04-.222c-.433-.274-.853-.568-1.297-.818-.926-.52-1.798-.28-2.294.652-.408.766-.79 1.55-1.135 2.348-.442 1.03-.727 2.142-1.273 3.11-.94 1.662-2.008 3.256-3.066 4.85-.705 1.062-1.384 2.158-2.556 2.814-.328.185-.55.25-.72-.14-.117-.267-.302-.54-.312-.815-.045-1.148-.14-2.31-.017-3.445.142-1.296.586-2.56.732-3.855.182-1.604.86-3.003 1.575-4.39.26-.503.792-.867 1.2-1.294.38.447.768.89 1.137 1.345.07.087.062.233.107.347.312.792.628 1.582.942 2.373l.256.016c.12-.27.333-.535.342-.808.033-1.13.078-2.27-.02-3.392-.14-1.592-1.2-2.152-2.595-1.432-.416.215-.858.473-1.15.826-.856 1.042-1.574 2.17-2.132 3.388-.744 1.29-.87 1.52-.943 1.656-.53.97-1.05 1.95-1.55 2.938-1.035 2.048-2.644 5.23-3.654 7.29-.005.008-.005.02-.01.032-.232.463-.44.94-.663 1.408-.653 1.38-1.303 2.763-1.967 4.138-.354.734-.734 1.455-1.103 2.183.385-2.022.865-3.986 1.375-5.943.328-1.258.725-2.5 1.042-3.76.32-1.277.563-2.575.876-3.855.51-2.1 1.094-4.18 1.562-6.29.273-1.23.39-2.498.554-3.75.03-.232-.055-.48-.086-.717l-.234.03c-.2.922-.402 1.846-.64 2.933-.306-.495-.55-.86-.766-1.244-.348-.62-1.38-1.247-1.93-1.018-.486.203-.98.538-1.308.945-.43.536-.65 1.235-1.05 1.802-.93 1.32-1.382 2.828-1.71 4.364-.5 2.35-1.255 4.596-2.425 6.695-.303.548-.7 1.03-1.597.747-.157-1.012-.523-2.103-.444-3.16.115-1.56.454-3.125.877-4.637.384-1.375.68-2.738.302-4.116-.168-.61-.575-1.288-1.08-1.64-.805-.56-1.617.022-2.125.944-.692 1.258-1.406 2.55-1.802 3.916-.584 2.017-.892 4.114-1.323 6.175-.173.825-.362 1.648-.584 2.656-.16-.274-.235-.343-.226-.396.315-1.73.53-3.488.987-5.18.7-2.59.997-5.19.596-7.84-.105-.696-.397-1.377-1.175-1.81-.205.4-.438.76-.578 1.15-.44 1.234-.82 2.49-1.267 3.72-.665 1.842-1.313 3.693-2.077 5.494-.274.648-.845 1.18-1.316 1.732-.337.396-.835.453-1.078-.01-.412-.78-.823-1.613-.97-2.47-.153-.882-.015-1.82.043-2.73.087-1.394.23-2.785.316-4.178.04-.627.008-1.26.008-1.89l-.34-.006-.117 1.944-.207-.01c-.022-.132-.048-.264-.065-.397-.085-.64-.103-1.294-.27-1.91-.186-.675-.667-.775-1.07-.245-.4.528-.83 1.085-1.04 1.7-.703 2.04-1.392 4.09-1.933 6.174-.42 1.61-.63 3.276-.433 4.963.03.26.03.63-.123.786-1.214 1.24-2.418 2.514-4.247 2.852-1.03.19-1.97-.215-2.422-1.124 2.03-.385 3.02-1.89 3.693-3.61.737-1.877 1.353-3.805 1.962-5.73.382-1.206.716-2.434.965-3.674.48-2.38.856-4.78 1.32-7.162.37-1.908.83-3.8 1.208-5.706.487-2.46.955-4.923 1.375-7.394.084-.498.27-1.115-.415-1.59-1.395 10.24-5.07 19.465-11.862 27.41l-.282-2.27c-.13-1.04-.53-1.555-1.432-1.59-.163 1.82-.382 3.652-.466 5.49-.042.905-.03 1.732-.75 2.434-.662.647-1.185 1.44-1.845 2.092-1.192 1.177-2.407 2.34-3.684 3.425-.736.627-1.414.358-1.722-.535-.045-.13-.086-.264-.13-.395-.074.264-.02.477.01.693.14.947.59 1.242 1.456.81.727-.362 1.477-.773 2.05-1.334 1.414-1.384 2.74-2.86 4.084-4.313.218-.236.357-.545.54-.83.238.26.286.29.302.334.053.14.098.285.138.43.357 1.303 1.048 2.314 2.355 2.846.274.112.505.383.706.622.572.68 1.284 1.28 2.152 1.224 1.51-.095 2.838-.77 3.95-1.825.41-.39.838-.758 1.276-1.153.766 1.822 1.73 1.9 2.79.372.485-.7.775-1.548 1.076-2.356.25-.674.39-1.39.626-2.27.256.73.35 1.306.646 1.746.308.456.762.958 1.25 1.097.342.098 1.012-.27 1.25-.622.632-.937 1.222-1.936 1.624-2.988.784-2.05 1.424-4.156 2.135-6.235.268-.782.568-1.552.913-2.493.213.347.352.5.41.68.598 1.842.58 3.747.31 5.613-.222 1.538-.817 3.018-1.125 4.548-.252 1.255-.354 2.542-.457 3.82-.036.452.064.952.66 1.126.212-.733.458-1.417.605-2.122.494-2.372.886-4.768 1.45-7.123.43-1.798 1.058-3.547 2.416-4.916.627-.63 1.217-.562 1.678.305.556 1.043.638 2.197.363 3.365-.38 1.62-.72 3.248-1.13 4.86-.373 1.472-.065 2.876.36 4.26.11.357.5.885.757.88.39-.004.89-.32 1.133-.655.46-.64.776-1.388 1.145-2.095.23-.44.447-.89.67-1.337.215.527.18 1.04.342 1.478.27.733.57 1.5 1.045 2.102.484.612 1.504.347 2.232-.45.447-.49.875-.996 1.312-1.495.15.19.17.29.147.378-.51 2.016-.988 4.038-1.542 6.04-.726 2.627-1.47 5.25-2.285 7.852-.608 1.944-1.35 3.846-2.008 5.773-.27.79-.51 1.594-.704 2.405-.054.22.104.493.164.742 1.452-3.533 2.66-7.025 3.983-10.473.742-1.93 1.675-3.788 2.53-5.676.494-1.092.995-2.18 1.496-3.27v.01s.523-1.123.52-1.125c.143-.208.357-.53.473-.75 1.365-2.617 2.73-5.234 4.08-7.86.225-.44.39-.915 1.27-2.673.285-.502.572-1.002.872-1.495.646-1.06 1.18-2.205 2.407-2.79.792-.38 1.172-.39 1.608.358.766 1.31.465 2.747.386 4.163-.21-.248-.32-.514-.407-.79-.3-.962-.632-1.887-1.43-2.597-.353-.312-.616-.328-.89-.05-.418.426-.88.85-1.153 1.366-1.158 2.176-1.915 4.505-2.214 6.947-.203 1.658-.225 3.34-.286 5.015-.026.715.477 1.213 1.017 1.522.585.335.992-.163 1.398-.563 1.456-1.434 2.552-3.123 3.573-4.872.15-.254.365-.47.55-.702.11.258.064.426.06.595-.04 1.05-.688 2.084-.105 3.153.2.366.415.724.623 1.086.396-.27.91-.46 1.16-.83.527-.775.918-1.643 1.355-2.477.227-.432.433-.875.67-1.357.173.87.263 1.636.484 2.36.263.86 1.25 1.255 1.836.77 1.502-1.24 2.837-2.653 3.66-4.432 1.1-2.37 2.08-4.796 3.12-7.195.084-.19.232-.35.35-.525.09.04.18.08.27.118-.415 1.644-.793 3.298-1.254 4.93-.446 1.574-.99 3.122-1.468 4.688-.413 1.354-.807 2.713-1.187 4.077-.476 1.707-.966 3.41-1.38 5.134-.455 1.904-.844 3.826-1.24 5.746-.45 2.196-.85 4.404-1.326 6.597-.302 1.38-.716 2.737-1.048 4.112-.107.442-.114.91-.167 1.365l.277.075c.134-.217.31-.418.395-.65.246-.667.4-1.37.69-2.015 1.044-2.3 2.16-4.57 3.188-6.876.784-1.763 1.45-3.577 2.218-5.347 1.012-2.335 2.056-4.657 3.112-6.973 1.447-3.17 2.883-6.346 4.397-9.483.583-1.208 1.508-2.193 2.777-3.135-.3.973-.544 1.747-.772 2.525-.61 2.083-.966 4.21-.775 6.38.045.517.49.998.75 1.496.388-.21.87-.335 1.143-.645.51-.575.928-1.238 1.326-1.9.542-.9 1.106-1.8 1.52-2.763.404-.94 1.476-1.49 1.467-2.67-.003-.227.35-.458.54-.688.168.255.417.49.49.77.39 1.473.695 2.97 1.11 4.437.317 1.117 1.566 1.82 2.624 1.352 1.363-.6 2.68-1.347 3.92-2.18.973-.653 1.783-1.55 2.69-2.307.92-.768 1.72-.516 2.148.613.168.443.39.866.61 1.287 1.31 2.51 3.568 3.406 6.192 3.317 1.9-.064 3.802-.454 5.68-.813.896-.17 1.74-.608 2.61-.926-1.03.05-2.008.235-2.963.506zm-46.844-9.122l-2.506 2.886c.505-2.04 1.52-3.16 2.506-2.886zm-55.502 8.053c0-.943-.064-1.893.02-2.83.082-.946.31-1.88.514-3.037.952 1.285.875 2.593.852 3.78-.015.733-.706 1.454-1.094 2.18-.098-.03-.194-.062-.292-.093zm.258 1.46c-.205-.602-.016-.88 1.19-2.163l.938 4.942c-1.39-.46-1.74-1.646-2.128-2.78zm2.643 2.597c-.53-1.777-1.07-3.577-.875-5.44.067-.64.703-1.227 1.097-1.828 1.445-2.206 2.958-4.37 4.327-6.623.95-1.56 1.75-3.215 2.528-4.87.49-1.043.815-2.165 1.214-3.25l.698-1.915.175.046c-.292 1.573-.548 3.153-.883 4.716-.848 3.943-1.665 7.896-2.627 11.812-.515 2.093-1.228 4.155-2.433 5.982-.562.854-1.3 1.53-2.348 1.79-.434.11-.734.054-.875-.418zm12.08-7.593c-.383 2.11-.817 4.21-1.247 6.313-.193.94-1.11 1.286-1.684 1.91-.064.07-.53-.085-.665-.252-.328-.4-.634-.85-.24-1.41.515-.733 1.045-1.462 1.492-2.236 1.09-1.888 1.776-3.935 2.218-6.064.036-.175-.032-.372-.053-.56-.005.003-.01.01-.016.012v-.01c-.087.047-.225.085-.23.138-.25 2.255-1.107 4.3-2.188 6.257-.395.716-.917 1.36-1.382 2.04l-.27-.07c.094-1.276.033-2.59.316-3.823.562-2.452 1.285-4.87 2.01-7.28.147-.486.55-.93.924-1.304.403-.402.672-.052.705.337.082.97.097 1.944.13 2.917.01.263-.008.526-.014.79l.016-.006v.004l.42-.334c-.084.957-.094 1.807-.242 2.63zm19.61 8.02c-.523.267-.988.158-1.19-.45-.31-.934-.588-1.88-.897-2.88.34-1.43.59-2.86 1.03-4.228.388-1.207.925-2.38 1.516-3.504.39-.744.943-1.422 1.512-2.05.644-.71 1.718-.444 1.993.504.354 1.223.507 2.488.27 3.76-.28 1.496-.5 3.014-.92 4.474-.53 1.856-1.512 3.454-3.316 4.374zm40.3-6.24c-.546.91-1 1.877-1.568 2.773-.453.716-.99 1.383-1.543 2.026-.22.257-.554.276-.668-.176-.133-.528-.252-1.06-.378-1.59.234-1.41.428-2.79.702-4.154.196-.97.46-1.933.775-2.872.185-.55.49-1.077.823-1.557.115-.164.513-.262.72-.198s.422.348.487.577c.247.86.435 1.737.644 2.608.027.12.01.282.082.354.774.772.363 1.47-.077 2.207zm.91-1.94c-.104.02-.21.037-.314.055l-1.03-3.844.263-.24c.366.213.907.338 1.067.656.554 1.098.917 2.263.016 3.375zM121.54 19.238l.324 2.093c-.728-.12-.81-.606-.325-2.092zM101.52 8.985l-1.694 1.885c-.058-.05-.115-.103-.173-.154l1.7-1.882.168.15z"/>
</svg>
